<mxfile host="Electron" modified="2023-12-19T16:10:48.459Z" agent="Mozilla/5.0 (Windows NT 10.0; Win64; x64) AppleWebKit/537.36 (KHTML, like Gecko) draw.io/22.1.11 Chrome/114.0.5735.289 Electron/25.9.8 Safari/537.36" etag="QO_Jx73MHTGqmzwJnm-2" version="22.1.11" type="device">
  <diagram id="C5RBs43oDa-KdzZeNtuy" name="Page-1">
    <mxGraphModel dx="3293" dy="1653" grid="1" gridSize="10" guides="1" tooltips="1" connect="1" arrows="1" fold="1" page="1" pageScale="1" pageWidth="827" pageHeight="1169" math="0" shadow="0">
      <root>
        <mxCell id="WIyWlLk6GJQsqaUBKTNV-0" />
        <mxCell id="WIyWlLk6GJQsqaUBKTNV-1" parent="WIyWlLk6GJQsqaUBKTNV-0" />
        <mxCell id="lq-5jt9Ya-7NSeZJYcWY-0" style="edgeStyle=none;rounded=0;orthogonalLoop=1;jettySize=auto;html=1;strokeWidth=2;fontSize=16;fontColor=#000000;entryX=0.407;entryY=0.56;entryDx=0;entryDy=0;entryPerimeter=0;" edge="1" parent="WIyWlLk6GJQsqaUBKTNV-1" source="lq-5jt9Ya-7NSeZJYcWY-65" target="lq-5jt9Ya-7NSeZJYcWY-74">
          <mxGeometry relative="1" as="geometry">
            <mxPoint x="1120" y="618.5" as="sourcePoint" />
            <mxPoint x="1180" y="618.7402890695573" as="targetPoint" />
          </mxGeometry>
        </mxCell>
        <mxCell id="lq-5jt9Ya-7NSeZJYcWY-80" value="&lt;font style=&quot;font-size: 18px;&quot;&gt;生产数据&lt;/font&gt;" style="edgeLabel;html=1;align=center;verticalAlign=middle;resizable=0;points=[];" vertex="1" connectable="0" parent="lq-5jt9Ya-7NSeZJYcWY-0">
          <mxGeometry x="-0.2409" y="-1" relative="1" as="geometry">
            <mxPoint x="21" y="-2" as="offset" />
          </mxGeometry>
        </mxCell>
        <mxCell id="lq-5jt9Ya-7NSeZJYcWY-2" style="rounded=0;orthogonalLoop=1;jettySize=auto;html=1;strokeWidth=2;fontSize=16;fontColor=#000000;" edge="1" parent="WIyWlLk6GJQsqaUBKTNV-1" source="lq-5jt9Ya-7NSeZJYcWY-74" target="lq-5jt9Ya-7NSeZJYcWY-84">
          <mxGeometry relative="1" as="geometry">
            <mxPoint x="1290" y="610.2874963073797" as="sourcePoint" />
            <mxPoint x="1371" y="610" as="targetPoint" />
            <Array as="points" />
          </mxGeometry>
        </mxCell>
        <mxCell id="lq-5jt9Ya-7NSeZJYcWY-69" value="" style="endArrow=classic;html=1;rounded=0;entryX=0.364;entryY=0.478;entryDx=0;entryDy=0;entryPerimeter=0;" edge="1" parent="WIyWlLk6GJQsqaUBKTNV-1" source="lq-5jt9Ya-7NSeZJYcWY-64" target="lq-5jt9Ya-7NSeZJYcWY-74">
          <mxGeometry width="50" height="50" relative="1" as="geometry">
            <mxPoint x="1140" y="440" as="sourcePoint" />
            <mxPoint x="1180" y="588.5549132947976" as="targetPoint" />
          </mxGeometry>
        </mxCell>
        <mxCell id="lq-5jt9Ya-7NSeZJYcWY-76" value="&lt;font style=&quot;font-size: 18px;&quot;&gt;生产数据&lt;/font&gt;" style="edgeLabel;html=1;align=center;verticalAlign=middle;resizable=0;points=[];" vertex="1" connectable="0" parent="lq-5jt9Ya-7NSeZJYcWY-69">
          <mxGeometry x="-0.1936" relative="1" as="geometry">
            <mxPoint as="offset" />
          </mxGeometry>
        </mxCell>
        <mxCell id="lq-5jt9Ya-7NSeZJYcWY-71" value="" style="endArrow=classic;html=1;rounded=0;entryX=0.136;entryY=0.699;entryDx=0;entryDy=0;entryPerimeter=0;" edge="1" parent="WIyWlLk6GJQsqaUBKTNV-1" source="lq-5jt9Ya-7NSeZJYcWY-66" target="lq-5jt9Ya-7NSeZJYcWY-74">
          <mxGeometry width="50" height="50" relative="1" as="geometry">
            <mxPoint x="1030" y="850" as="sourcePoint" />
            <mxPoint x="1180" y="649.7109826589594" as="targetPoint" />
          </mxGeometry>
        </mxCell>
        <mxCell id="lq-5jt9Ya-7NSeZJYcWY-81" value="&lt;font style=&quot;font-size: 18px;&quot;&gt;生产数据&lt;/font&gt;" style="edgeLabel;html=1;align=center;verticalAlign=middle;resizable=0;points=[];" vertex="1" connectable="0" parent="lq-5jt9Ya-7NSeZJYcWY-71">
          <mxGeometry x="0.155" y="-2" relative="1" as="geometry">
            <mxPoint x="-16" y="22" as="offset" />
          </mxGeometry>
        </mxCell>
        <mxCell id="lq-5jt9Ya-7NSeZJYcWY-86" value="&lt;font style=&quot;font-size: 18px;&quot;&gt;HTTP Report&lt;/font&gt;" style="rounded=1;whiteSpace=wrap;html=1;" vertex="1" parent="WIyWlLk6GJQsqaUBKTNV-1">
          <mxGeometry x="1450" y="761.85" width="120" height="60" as="geometry" />
        </mxCell>
        <mxCell id="lq-5jt9Ya-7NSeZJYcWY-87" value="" style="endArrow=classic;html=1;rounded=0;entryX=0;entryY=0.5;entryDx=0;entryDy=0;exitX=0.983;exitY=0.462;exitDx=0;exitDy=0;exitPerimeter=0;strokeWidth=2;" edge="1" parent="WIyWlLk6GJQsqaUBKTNV-1" source="lq-5jt9Ya-7NSeZJYcWY-74" target="lq-5jt9Ya-7NSeZJYcWY-86">
          <mxGeometry width="50" height="50" relative="1" as="geometry">
            <mxPoint x="1330" y="630" as="sourcePoint" />
            <mxPoint x="1370" y="570" as="targetPoint" />
          </mxGeometry>
        </mxCell>
        <mxCell id="lq-5jt9Ya-7NSeZJYcWY-88" value="" style="group" vertex="1" connectable="0" parent="WIyWlLk6GJQsqaUBKTNV-1">
          <mxGeometry x="1450" y="510" width="120" height="108.39999999999998" as="geometry" />
        </mxCell>
        <mxCell id="lq-5jt9Ya-7NSeZJYcWY-84" value="" style="sketch=0;pointerEvents=1;shadow=0;dashed=0;html=1;strokeColor=none;fillColor=#505050;labelPosition=center;verticalLabelPosition=bottom;outlineConnect=0;verticalAlign=top;align=center;shape=mxgraph.office.clouds.cloud;" vertex="1" parent="lq-5jt9Ya-7NSeZJYcWY-88">
          <mxGeometry x="13" y="53.39999999999998" width="94" height="55" as="geometry" />
        </mxCell>
        <mxCell id="lq-5jt9Ya-7NSeZJYcWY-85" value="&lt;font style=&quot;font-size: 18px;&quot;&gt;WebSocket&lt;/font&gt;" style="rounded=0;whiteSpace=wrap;html=1;" vertex="1" parent="lq-5jt9Ya-7NSeZJYcWY-88">
          <mxGeometry width="120" height="37" as="geometry" />
        </mxCell>
        <mxCell id="lq-5jt9Ya-7NSeZJYcWY-89" value="" style="group" vertex="1" connectable="0" parent="WIyWlLk6GJQsqaUBKTNV-1">
          <mxGeometry x="1181" y="550" width="120" height="193.60000000000002" as="geometry" />
        </mxCell>
        <mxCell id="lq-5jt9Ya-7NSeZJYcWY-74" value="" style="html=1;verticalLabelPosition=bottom;align=center;labelBackgroundColor=#ffffff;verticalAlign=top;strokeWidth=2;strokeColor=#0080F0;shadow=0;dashed=0;shape=mxgraph.ios7.icons.data;" vertex="1" parent="lq-5jt9Ya-7NSeZJYcWY-89">
          <mxGeometry x="20" y="54.5" width="80" height="139.1" as="geometry" />
        </mxCell>
        <mxCell id="lq-5jt9Ya-7NSeZJYcWY-83" value="&lt;font style=&quot;font-size: 18px;&quot;&gt;IndexedDB&lt;/font&gt;" style="rounded=0;whiteSpace=wrap;html=1;" vertex="1" parent="lq-5jt9Ya-7NSeZJYcWY-89">
          <mxGeometry width="120" height="37" as="geometry" />
        </mxCell>
        <mxCell id="lq-5jt9Ya-7NSeZJYcWY-91" value="" style="group;fillColor=#d5e8d4;strokeColor=#82b366;" vertex="1" connectable="0" parent="WIyWlLk6GJQsqaUBKTNV-1">
          <mxGeometry x="860" y="320" width="140" height="740" as="geometry" />
        </mxCell>
        <mxCell id="lq-5jt9Ya-7NSeZJYcWY-72" value="&lt;font color=&quot;#1a1a1a&quot; style=&quot;font-size: 20px;&quot;&gt;应用客户端&lt;/font&gt;" style="rounded=0;whiteSpace=wrap;html=1;strokeColor=#CC0606;fillColor=none;fontSize=16;verticalAlign=top;labelPosition=center;verticalLabelPosition=middle;align=center;fontColor=#CC0606;strokeWidth=2;" vertex="1" parent="lq-5jt9Ya-7NSeZJYcWY-91">
          <mxGeometry width="140" height="740" as="geometry" />
        </mxCell>
        <mxCell id="lq-5jt9Ya-7NSeZJYcWY-64" value="" style="dashed=0;outlineConnect=0;html=1;align=center;labelPosition=center;verticalLabelPosition=bottom;verticalAlign=top;shape=mxgraph.webicons.chrome;gradientColor=#DFDEDE" vertex="1" parent="lq-5jt9Ya-7NSeZJYcWY-91">
          <mxGeometry x="18.40000000000009" y="90" width="103.2" height="104" as="geometry" />
        </mxCell>
        <mxCell id="lq-5jt9Ya-7NSeZJYcWY-65" value="" style="dashed=0;outlineConnect=0;html=1;align=center;labelPosition=center;verticalLabelPosition=bottom;verticalAlign=top;shape=mxgraph.webicons.chrome;gradientColor=#DFDEDE" vertex="1" parent="lq-5jt9Ya-7NSeZJYcWY-91">
          <mxGeometry x="18.40000000000009" y="315.5" width="103.2" height="104" as="geometry" />
        </mxCell>
        <mxCell id="lq-5jt9Ya-7NSeZJYcWY-66" value="" style="dashed=0;outlineConnect=0;html=1;align=center;labelPosition=center;verticalLabelPosition=bottom;verticalAlign=top;shape=mxgraph.webicons.chrome;gradientColor=#DFDEDE" vertex="1" parent="lq-5jt9Ya-7NSeZJYcWY-91">
          <mxGeometry x="18.40000000000009" y="551" width="103.2" height="104" as="geometry" />
        </mxCell>
        <mxCell id="lq-5jt9Ya-7NSeZJYcWY-95" style="rounded=0;orthogonalLoop=1;jettySize=auto;html=1;strokeWidth=2;fontSize=16;fontColor=#000000;entryX=0.048;entryY=0.636;entryDx=0;entryDy=0;entryPerimeter=0;" edge="1" parent="WIyWlLk6GJQsqaUBKTNV-1" source="lq-5jt9Ya-7NSeZJYcWY-84" target="lq-5jt9Ya-7NSeZJYcWY-108">
          <mxGeometry relative="1" as="geometry">
            <mxPoint x="1560" y="552" as="sourcePoint" />
            <mxPoint x="1785" y="634.4726923076919" as="targetPoint" />
            <Array as="points" />
          </mxGeometry>
        </mxCell>
        <mxCell id="lq-5jt9Ya-7NSeZJYcWY-96" style="rounded=0;orthogonalLoop=1;jettySize=auto;html=1;strokeWidth=2;fontSize=16;fontColor=#000000;entryX=0;entryY=0.75;entryDx=0;entryDy=0;" edge="1" parent="WIyWlLk6GJQsqaUBKTNV-1" source="lq-5jt9Ya-7NSeZJYcWY-86" target="lq-5jt9Ya-7NSeZJYcWY-108">
          <mxGeometry relative="1" as="geometry">
            <mxPoint x="1537" y="682" as="sourcePoint" />
            <mxPoint x="1785" y="665.3880769230764" as="targetPoint" />
            <Array as="points" />
          </mxGeometry>
        </mxCell>
        <mxCell id="lq-5jt9Ya-7NSeZJYcWY-131" value="" style="outlineConnect=0;dashed=0;verticalLabelPosition=bottom;verticalAlign=top;align=center;html=1;shape=mxgraph.aws3.postgre_sql_instance;fillColor=#2E73B8;gradientColor=none;" vertex="1" parent="WIyWlLk6GJQsqaUBKTNV-1">
          <mxGeometry x="2390" y="621.1499999999999" width="170" height="164" as="geometry" />
        </mxCell>
        <mxCell id="lq-5jt9Ya-7NSeZJYcWY-134" value="" style="verticalLabelPosition=bottom;aspect=fixed;html=1;shape=mxgraph.salesforce.web;" vertex="1" parent="WIyWlLk6GJQsqaUBKTNV-1">
          <mxGeometry x="840" y="50" width="180" height="142.2" as="geometry" />
        </mxCell>
        <mxCell id="lq-5jt9Ya-7NSeZJYcWY-135" value="" style="endArrow=classic;startArrow=classic;html=1;rounded=0;entryX=0;entryY=0.5;entryDx=0;entryDy=0;entryPerimeter=0;strokeWidth=2;" edge="1" parent="WIyWlLk6GJQsqaUBKTNV-1" source="lq-5jt9Ya-7NSeZJYcWY-28" target="lq-5jt9Ya-7NSeZJYcWY-131">
          <mxGeometry width="50" height="50" relative="1" as="geometry">
            <mxPoint x="2300" y="620" as="sourcePoint" />
            <mxPoint x="2350" y="570" as="targetPoint" />
          </mxGeometry>
        </mxCell>
        <mxCell id="lq-5jt9Ya-7NSeZJYcWY-28" value="后端服务" style="verticalLabelPosition=bottom;html=1;verticalAlign=top;align=center;strokeColor=none;fillColor=#00BEF2;shape=mxgraph.azure.cloud_service;labelBackgroundColor=none;fontSize=16;fontColor=#010208;aspect=fixed;" vertex="1" parent="WIyWlLk6GJQsqaUBKTNV-1">
          <mxGeometry x="2090" y="662.6999999999999" width="100" height="80.9" as="geometry" />
        </mxCell>
        <mxCell id="lq-5jt9Ya-7NSeZJYcWY-139" value="" style="endArrow=classic;startArrow=classic;html=1;rounded=0;entryX=0.03;entryY=0.5;entryDx=0;entryDy=0;entryPerimeter=0;strokeWidth=2;exitX=1;exitY=0.75;exitDx=0;exitDy=0;" edge="1" parent="WIyWlLk6GJQsqaUBKTNV-1" source="lq-5jt9Ya-7NSeZJYcWY-108" target="lq-5jt9Ya-7NSeZJYcWY-28">
          <mxGeometry width="50" height="50" relative="1" as="geometry">
            <mxPoint x="1950" y="687.95" as="sourcePoint" />
            <mxPoint x="2141" y="672.95" as="targetPoint" />
          </mxGeometry>
        </mxCell>
        <mxCell id="lq-5jt9Ya-7NSeZJYcWY-140" value="" style="group;fillColor=#d5e8d4;strokeColor=#82b366;" vertex="1" connectable="0" parent="WIyWlLk6GJQsqaUBKTNV-1">
          <mxGeometry x="1770" y="460" width="126.18000000000006" height="590" as="geometry" />
        </mxCell>
        <mxCell id="lq-5jt9Ya-7NSeZJYcWY-114" value="" style="group" vertex="1" connectable="0" parent="lq-5jt9Ya-7NSeZJYcWY-140">
          <mxGeometry y="160" width="126.18000000000006" height="430" as="geometry" />
        </mxCell>
        <mxCell id="lq-5jt9Ya-7NSeZJYcWY-146" value="" style="rounded=0;whiteSpace=wrap;html=1;fillColor=#d5e8d4;strokeColor=#82b366;" vertex="1" parent="lq-5jt9Ya-7NSeZJYcWY-114">
          <mxGeometry x="-23.819999999999936" y="-300" width="150" height="730" as="geometry" />
        </mxCell>
        <mxCell id="lq-5jt9Ya-7NSeZJYcWY-106" value="" style="group" vertex="1" connectable="0" parent="lq-5jt9Ya-7NSeZJYcWY-114">
          <mxGeometry x="6.179999999999836" y="171.45000000000005" width="90" height="110" as="geometry" />
        </mxCell>
        <mxCell id="lq-5jt9Ya-7NSeZJYcWY-93" value="" style="shape=image;aspect=fixed;image=data:image/png,iVBORw0KGgoAAAANSUhEUgAAASwAAAEsCAMAAABOo35HAAAACXBIWXMAAAsTAAALEwEAmpwYAAAAOVBMVEVHcEwAAAAAAAAAAAAAAAAAAAAAAAAAAAAAAAAAAAAAAAAAAAAAAAAAAAAAAAAAAAAAAAAAAAAAAADLcPMfAAAAEnRSTlMATSaeAcZ3/vsEs2IUOPCJ1eOHEZ3XAAAS+0lEQVR42uxdi5akKAz1gSK+5f8/diWgpSTyqJk5K6Xs2dme7q7q5m6IIbk3ybJ3vetd73rXu971rne9613vete73vWud73rXe9617ve9a53vetyMbVeGLwwCSF2mNaPxQvJJVKEOb14UUsjVXRltYyN5OMyt1Pef77yrg9U6t+uaqS1lnIAJ/YidIJqaBU4vFkXV0t9ANiNU//CdXj4ZVm+rLAomOT6DwfY1H9XyNRfyl4D+q4VhWFWNrXBdFgKL67sq1SgvlitWJVgVNJG6oPXChfPX+NaraUYV6wIq7Lhap+O1opV54HKwLWiNfaPPonr3qcVKw9UH+Mano1VKSX3Y7Ub1/Bk2yrBZmTI2tB6rN+awrHa0CqeiZbIcjiDMngBWuKJaImsj8RK29b8zEO4qOcgMh5zMVR/Is8PaE3Pc/JsdVgoZvjcBuGmqBGzsHyg22JwCM9QmGBKJRpUSkua+yJyWw88iK11CDeoqq6AY9YP5Whu0jZa3bNMS2SFPKNgYoipP35bPqP4XoE1Pu0UWoalg6hWQM1CJbiYYMp8OhKtR5mW8Vh2CNXZ+fYVkn5B96FGLs86hZNlWOovA5HfW+GaLdvi/Gm3nvG8f4VVTsZPgojHGlk+Byzk3tUhrC9izfV6Y0X6yr89J8kMp/AAljt4EquX5+dzyPmTzqHyQ2cv5AzL5xO2Kh6bngLWeoCsZ2GjEuwO0xos02pk9ZRjqF3W2bI8x2qRzdlpjU9xWiqRhffujTTOx7Z/DFj1ae8QCjDPOWziTPGHwCrPluW7vzAdPZxekT8ELLgY8jg7Wc7n8DnXQ5ZV562rwIG5XzHbYNXPBat3b128YL1gBSezLJ/FIn1W/dynYe55GmaN/TTsHgPWZMdZ7qseHfI/JSjtbMtaoqJY7vdyPwTWgFKfnlrgbAdm/Cl3Qx2Q8+DUJz6Fz6odoiyCFNeWgktBT8oro8chmJbr1FrHtnlQxULnaCzTuooemKpu2DVGGeqyVPlxXyxNp5VJXN2hn28MF/ohsRqycQxPioDpvIN1EBuKpiY0PdCqV4QkaJj+jn7opnJdU50X4vD5tIIHXJHmhc10Z2Kj6MqIxCr8BGVBRV2N8vggXcpcZAnKzBbktdaws84OAkOmPupnhJX0XwzVV/tp2WheZul3qfLU4IIg3raXFa15MK5F70ZMWlEgz4fQ494Vr6RopVFOHZfWmTV1lppYY6H5WUtdbHvOW4kVBTzgJpkVlTRyIEQc5IBXnaV0A1DRA+ZA6htgM7dlW8Ehaigum7t2r1UblxIXIzMbh7SMq0L8W00pBdTUhihOqSsiM1ANHuGUMeEyIbQumN3AVjb++IKt3LojuNovnNp1UwnFWp1ElhPAg3cdQqEi2ADhlDGuPCUf34YIwiSivAmHXVWSBwmn+EY1TOfSM0ehBVh1Trua/drFdNEaI9ACrCbn20HViAefac/D4m5OXjSh2+M+rMyxjhADJaYyY5kYww7Ofh1ypAjrGEFegiozcDP+o/h5ejFP7pmTr9WqKRqtKqVLIjQqcBoXN3FREeD/0Cv3sK0hAIPP1CkFp0qj6YCLB0XclMhMA3XIGZKXxaR4ceoXLQEu+hDpDS+DBytSZAZZmbEqp2lq58u7ZptWKtCkCcjbDyRVOm+WAOWe9UvHer/UkFkMzlMTMCoYdJMjwgWvVtX58k8Micz0ARtzldzSJQvIMbekbqrKssSMK+trSgUsy8KfqoPaGsqnQnlN7M2koPHb0GDb8nLp7gfXFoDLcx2nCUgC4xI3YIVb/TC4YnEkhUmvZCsIsNyl6lOSmoeIzHaVmUyeOUGCFbQPW95yKTJTaKGabZLc5y/BErbUk7uY9SbrGMPD/y2wuvML3Ro7zfaKUXj8FlgWz8TNooSbkRVmJNgr4muftVhqFbelgGklL9j4DixKrDK570aYTJdez5bvwKLoub5TVdlM8fYhloU1Y74XoXOoGMBPsSxEfp59r8jtY5je4/BbsJCdtD51S4FuR8nF8H8HLL8HYnZcmuKF5wXrPYb/IgN4kXVg/mTW0xw8ZDLbi3yWO6FFiPl/OnQA2xkmMlNaQRbdAZfKKTcoKGW/GZQC17pQPesucvBy7kR2nVrG7vp3rzvQf20huyHqEg3YAGTi2RXWo5WiCblI8/Qu0upXrJutbMgvSqzqG9qCRGt9A1FKRGh2b36M6xt0H6y6kawV24VWBReeZAFYSzvzyRtXrxpsWEkk/1R1db6qRVMdTC0WDUwKGXF11tknN9G0sgCr4EGcqo0lfzyLppJNMBgcbQEZKu8kUbAQmahkOP3MwNVtaG3OqpGYxXvdVVjQ3WTvfwoLGcwAPfYy1TgZZ3XxBobUh4qsgFWCRVaRa7OKYSvDNmcdoqqxRpdYf+i14gxVP9v0wCTK97WMJHbvR3FUm668MooVrQqiM9VS1zBDanTuk+Ac1bGd8w8gjP1knJWb3Lx+uT0MVOnrMU3K0ZdY7Q2rA7zdxu1q63wY8m6a0ySzKSWK5LFn8DQ+LJDhzM/JBY7by4dRT/7PmGH4HiujhQqzSg0scG+Ncoow01u3AIL+v7TD4QdRWMM5/+6kklMxqPfiKdD+LiQ7u870QC+O1I3FPyyaW8sOmSaxXE4yXO80VbuuedynWPB/h9W9n4QXSoh9gkVdHMJWyAiGwxXhzTas7n4pnOlxO8DDFibUhhhyJzE3oaPXeBPj+28vz8Q9CvbYicMd+cAuhsYO0HQg5La9ydFjxJn3xsp07+PEL16SZQkFV97I0IxX28fIfm8+LhFRFI//k8Vl4rn1xPtbtkvt3qubgq+phhvi3tdnbVhYYgNKeJecd3KhZVRj0jQCceum9Hc3oPNkqXksbqYOeVpvOu6Sm2pMZ7nUyJ72Uje1C6fmIoG2Dla/HtMCxFeiB7To+PRwAsVuiMP8GeFtyw+VDY5dlkDSfSD1SP42mjC9tZH8KrXQHQe+Q8hRfQbZSTP3fLsf+IVT9wCrRIYVqIBn5DhEEyaU9uaPLaHkuSNUUw5ZIo1Vmq/TSXgU27ZI9wNBSN+1y6nkVdVDlghUaMqJt+nm+dUTFXWMpxN4Lk6oT4si7+p1dfmgZZoiDQYI6qkc1GXtcBCRaUHF7/r1QqDqTkIE7nPX37gmmlRAGzCtKNHOm5RpxIxmwkyh8CacyS2TTf6eviKsQSEB/b4TBquzXVbcXm0+ZIR4M7kFfSq+P4XkOfzZ0U7kKYrMVM62bf7qaCdmTe2ItwtbhQlg/epopxGDFZ8Ns23zVyd/NIhxt0SClWOwfnKmDKPAmqODj8eAhbmc1QvWa1n/BKzXZ0U8DZv4O8AznoZknCXeOOtiqxXealT8zf74HRKyrPLPPM5qg5i597N3QzvrEBk74LT07w4NIx78cU4Lu6z0+vWFn6IeZVhiziEjikO/PDRswZaxxB1j/oc5noTOYYnSUVGPfqL2Lz0sCSGYZnzB0DCWEli5vVvplFESzwf0MHTM0KHAEek0NM9k9BQd68Uc0f3GnKyympFgRTe187KMy1yVtS6zJoIXw50bIgo8LcF1AFpIRWvlsr6r7HL/UuZZlkr9Hk0mCmBnGZw7iupgmk2X7PwWoOifrVFhevaVbEJa6t5jNbjJOMRK3lZ1wwWb7aOe3t/jo+g/ig42aYrijw8X/IibmdZEMv9ab6PpQZL0rDObTQOw/tFxist2UCZUCRD/iLhUK56caKn+0ZdYHZnK6k3YQdHPHX0PpvtfkxhB4INdLf11BOBVvW4MXD07ZZt/xf1C/iRMi5o+R3MX1WNNifT9079gFFunevLIRvKQ7749sZQRlLSjoPkUBEEHdyAq81AdQLUESSz0T7z7UTQ5KZob2hYmyj7QqaD7SlDvB/Mm4d8MZNRbo6ViLSpg0hHAUh89idBTJ2JUYXESstujRYbiHw2d5Ou9pOu6emoXKUMa1fyJxNUzT+seN8TmYvRSc74NNf8OKumfaneXjOmFtuQokaZnZ/59tG7e1ME9As0hAD+eHx5x2Lb341TLmvH2bqukJhKFbz944qPpVABJVXLI6/17Z+mpMX/UMaQJC6Z4Y7lAPE5M3r3yKL5Gy0STY9BIX4BqnvKi74uhbjnRwIZHs1P+J9v64km3t3qCudqu8HO7LvaHbEw+Ey3vEih6sMAhxpRofFCvBjG0S6+66a4zqFkIfXVSHQI5agl1ey691vJGdRvTB6uBnlgqbePoNqaxGs53TUbKrXkKfAkGauaI64k2q8rkJpSddFeeXmuJBU6HEnJrnoqmpZ+D4TL+uv7kcQSEIGSHxOvMPtNoWW1KpcgSyDK7mhwSUFk6zKvemy4tMUN3U54II05oR+1txGAy5yhbt3V1xcLx6+0To25T0ZbtI0ZdjSH1/XqiUqmmBWdM7IQKcjyWrvl/+nloN2Pwumqp1dTsIkmvPjmiZpru59tsd/lOZlaYHjG6SHkdY1aqjnxF6zDC/HDKOOZcpETjBRgK1e6RmDTQVJ171IAgmufX7ub5mdUEN60Bh5rGQQ384CLLfM1X8PgrN9HU5lxwVRRPiuYl6Oko3Du/lhj4MX4x8CO19XdmhfmJpgyYvKcf89RZYTxoSJF86qyw6R1/9S8tq3+uZdXYZzG3ZT14ZB+aFbb4XpHb8D7FwVNxFvOEDhMexfaUMaM4gvelPuenDrBdrYjbYDlFKmj8u0xRD/v10O05atyvfQqfNHQbyVw8LcxWS0RzpxNULX4NVo4GHDqy6ojXmmZjqS/BQt2PnAMEiP6fcc2WUvdZ9iRM5fDrK6yEtAsWCQqtvx1gSygRDU2NgFngcgVPLyQVpGXpAbbCGzzYcjNu1HV4HGI/WqQBnlwjDfW7DiWZVm7zLCD/ZxPGAa0WXsmO2dicmOmURI31BJViuJC9k9fdTSILybngQisoEUz3TfVRUWGsZFo6azNSTjoG2JI1Q1c4sI/FmHauuMgrLD/gaQVZzIyUa8gW5vxQjfZOO0Z6M93PvCqnaWpnKS9mhU3JYLXPGuUOqhUITYQ3qYU5kPzIkySq3mZMEUsGq9ZL0zJnJ3fvar5ogX4cp8WxnCyda6GAR7l/+p7mZtXOQRc9za7nhtxNf6nR7MA0sCoClUk77ZH91961LccKAkHEC4u6ov7/x56Vi2sYbtappApn+ilJbR7SGWAYpqdTN8R7nonCtkh2NXFV1vqnA2RM/mnqVk+v4V9Ww9V8pwdXs5VeNOONfvEKfNUC17TyUDg+OySTkHEv1fu4Ft1q0tH+Zm+3jprE4SVdM3LBHribuKokaYj4HO4p5z0dDXOSLVVyYpjwW+Z6kga+R/S/37woKKZeMzenEq8wcWkSrwJryOzkhzwz4M5b4Dib6Rd3HsBDPVyFBzyZy8k2fu5ybb/ssa7t5BPq2S8e8Qoz/49+roerwDhc+8f1zUkEVy+4AeVLKkc9p414hdlb+dawqipYfmCZo3y0E67cpIIpVFTJ1lSOgqj6eoWdsHOO1oaxumrui1c1t46Q3aUoKsPCpILHGF0dnfqfXmFmM1zqmQh1uceBvv19k6Gi+QBlXCVv+lKX+9r1+puL9RKu6yVHtwv7L31bcBYNZEuUta3bOXbd/LZeYbwqrzCvrilADU6GjwIF367KRrlqazAzS/Lyg8oAJA6pyX8dyMhuvcfokZvmxKhzoKk/kjq9Z4MOoePjzWMH34bOQj+wkmU92MnRYiELblnpZKALtPatWMJKegIHkfOw9Yfmi8f6qUXSd3EjUPxJ8qLIIfgpZClfH6gyt70Z9Oq90URW60dWk3MoB5nWhCSygNxP5Ou7m9+LPaAhy2vUy+5AEjauE1lEVglZPKdMQkzW6KdN2fc7sGfh2eDBaThlTkMJUocGTZ41+HnWmFFxvYEqgKMhC8jlX/cSs8p6Zv+PLA4uxplVtQTU8jjIYqBtPV36hBX7rLD3yblDbtKO506EKHNwEnDhP1d0qfPAE9twRGRxWChu0x8G81MQYfOOt5gw6bDwePldEYiqysGVZWVcPgWdZBIqk3ZEqzBQhTdsqfNp9KSK8RdoeUNUgf/eeLy3QGGmRTJtsudG1qqAigvXQ1hoWoBzGrp6WHTG7UNUN973t0PL9cTum2rmz64u+RQayikEoku0V0gQkfntwvVJRnzYkCEk49ovHWfGGgCaPyF6BfuBgIzrlCW9gtokYeZbdAhDa05Zy0VVEfgWoSsm3JRxFdpsPhPDHbZETl/xdKhCqU11Kq7fyB/09PvS4fnOvgIvW6pIcmhTMI6YK2M2W2A1YMJqk3j3KweecxyyYdUy4kpa247YsWipWhqGeg1+2TrMjINuaac0STHiymxcnZ3bY43iDGXCyt2Ob9qZluA1uNh7tNdne4E+tUmLkjW4r/8xXXIa/WFj+6beLD9tDB9dmhA+tf22fDKvZVtH1cyMqIrsXSFWJO1Vcb7kl53r14T48djRhk4gEAgEAoFAIBAIBAKBQCAQCAQCgUD4A/wDZ0wHcCg/s1EAAAAASUVORK5CYII=;fontSize=14;" vertex="1" parent="lq-5jt9Ya-7NSeZJYcWY-106">
          <mxGeometry width="90" height="90" as="geometry" />
        </mxCell>
        <UserObject label="&lt;font style=&quot;font-size: 16px;&quot;&gt;Kafka&lt;/font&gt;" placeholders="1" name="Variable" id="lq-5jt9Ya-7NSeZJYcWY-102">
          <mxCell style="text;html=1;strokeColor=none;fillColor=none;align=center;verticalAlign=middle;whiteSpace=wrap;overflow=hidden;" vertex="1" parent="lq-5jt9Ya-7NSeZJYcWY-106">
            <mxGeometry y="90" width="80" height="20" as="geometry" />
          </mxCell>
        </UserObject>
        <mxCell id="lq-5jt9Ya-7NSeZJYcWY-108" value="" style="shape=image;aspect=fixed;image=data:image/jpg,iVBORw0KGgoAAAANSUhEUgAAAXIAAAGrCAMAAADqy+zcAAAA/FBMVEVHcEyKvV2JvV2JvVyJvVyIvVuKvV6JvVyIvFuIvFuLvl+Kvl6Lvl6JvVyKvV2KvV6KvV6Nv2KKvV2Tw2qJvV2MvmAzMzOKvV7///6Nv2KMvmGKvV+Lvl+RwWeOv2L///+TwmmPwGSUw2uOwGScx3Wax3SeyHmhyn2WxG6YxXGRwmiQwGaXxW+dyHijy4CnzYav0Y/M4bKmzILD3KWr0Ir+/vz0+e75/PXj79QqKio2NzRHUz3d68zr9OFARzrV5sA8QTi41pZ3oVOOon1RY0G92Z5abkpSVk+Br1mFtlppiU2dtodhfUl8qFZwlVBzfmqAlG+IvFuIvFyJvVzIE6smAAAAFHRSTlMAiJpVP/LlJwcUy9iqeGq2wPVi7xFt5PMAAFm6SURBVHhe7NpNboQwDEDhBvJDgAHEzRzuf5dKXRS1Gg1MEsws3ncB7yz5yV/nAGGeg+I4RJNEkola87A6+eEnlXGwvfzq7eXjEEb5Y7x2paMzTv5xprtuHlovT/hWYTRLfHfZSkds5IUmVh6H7uHkJfeoutLRDnJoqLfSERY5ZQlVxiE2SU5KFVY6usnJG9xUuNJhB3nTYMsmct1nyG4A6EySDNlZF6uXbH7NHMp1f0yhAbDE9Vc61/2uXgMg0W5Sw1Y163LdKzQAEu0BlazLEi9f6STaDNlZF2GWyxy8dpFoi5VnXRJtuZSddUm0O72sy3Vf3gB4wFKxv3aRaDdR5FcSrSaybhzlFmPkuldBA2i93Mi3JFp1SyDRqmsiS5yVrn7d6xssibY2sm40STTx2jU5+UBu4rq/uwGQaPWzLon287Mu1z0NwPbf7JxdboMwEIQVcABDRKJqERI5VT33v0vVh8qt+vPSeLSxZ46wWg3MxyyvzyDcgtK9GAA/3YsB8AtYfC29EK0TrKsCFqHapQIWlwFMQrTCugREK6xLQLTuGECs60bWv5CrXUr3wrqEApawLiHdC+sSbmSFdWnpXgyAj2j9CxnrysSpWFeIlo91le75DKApRCusmxEtzAzNDH1YJx+INsEMjWz7EhwUsFob+2X09BvDZGbVjx2ZAThAtK2s+/DiDtEm1L7uc3CGaPO6V2zp0V+6zy4jBsBu0WaXEdYlItpkZhDWJSDa+l2mi54RbX51l6X/q4CldV8CHdFq7NeRX8Bq/aGaTpF9I6t1P69PVsCqYexzoN/IymUuI/tGVi6Tsa6DG9lWAMHQs01cLmNzYKZ7uQwOA7pIS/d6l9l2vCszAI8FrJo+duwbPrT05RGtXAYHPus2li1gyWXSYfgq62LBG1mt+/2O7zqvUyFEq7HvB37WEkogWj1UceB3XcdHI1qte9p2/KG0n2KFN7Jv7Jtdb5swFIYv9iXtcjrgYBtCgJCuSbpO27oFtC5Lo25p8yHg//+X+QQX1V0XYpJMW+pHAtW9ip68eoFjso32yXK5OEiJ82ITII6XbzSe7o+nZWZTO5lOZtmeAVorHHn9XGNEeywtM0ls2x5fL/b/dF8vHJFj3cOPaP+ZMSQqRy7ni/0lnZNiW+M5vq1bN6I9qpaRypH0Zk/SiVUrXOXls5qn++NqGVQuGafLvXSKpnDk9auaEe0xtQwqr0iuJ7s/3esKR+RYVynx4427VC5J5jtJ50wn4owwqBYvhPLsSZArysvr6N/pFLJes2r9ZJRjsagk6aShcUtDOJAq60a5bU+zRtBNwh92imLfKE+zRpDtS7xQIfDklTcbQ2qVOMI4r/586sqbTX+3LHF2Z57jilbJN8WivbeX63UKvW/edHmjzY58G+FyrYy9LGKUp402O/Ltbww5W5+dgoQy8UZ5o82OGuFVp5RjLwgL6b2sdFQOuVH+SNw1Ur6pxEOReItbhBCH45pxoTwvwCjX2OzIN4WcgFLcVLjmjAioOEKQxZLneVEY5RvHkPUpV0uclYn2pGuL4UkcnlSOQG6Ub9sytZ0CtCxxKdz3AHxexp1SqRwBo7ymZWpSTgrlxtBjZbBDFxAeyC/Aq5RjuxjltT/K3qAclBIXdhkmOwCBwwEgdEvpqLwCCqO8Nu6C4s8Qvj7flXiAroM+5wMKAKf4b0tRjpVulNdREIDNbX5X4m4HAPoBR6wBCAIGIJVXFGCUb/X0+XjYLXE42CdCuOMDgPVW6Ha7eO4HuA4U5RqVbpRL779fQj15P4iCYUA5d7oIZj3A1HeEcp4/xCjXmLEAU5U764j72N2+Kzy/7UpwMeDrYikIyRU0Ym6UK3FH5RQz7gJAeILB7t7D4dw5QeXY+mCU7zovJwBVyvsAZF3fXZUB5/wUlSO8mXKjXMUB6AjlHQARcdpVkZWOymUl7azcKMeUd0iHnAJQ7JTHQOVWUcL3odwop4QTF0ifR39WDnKDiOxDuVHulMVi8WEcx8PoceUgJ1//oHJv8P8qR79RHPeE+YfKPRAcIuWzm2l6vcyak3+/+PTe3fFDzBord6Kr1erK1y4WqTyKhsMY6fUw7UqX9wHgAClfpju+V3z2pdVqtT9/cLLGLOZpOv/ZSLnXvfoxEqxuXe2UC6MdHiNDSRxH95XTQ6R8MR1Xr7hmTQi+tdotpH3xnTT8DDepbSdJupzpK/dvr0cjWzAar3qBhvKQhMTHy+ewonf27vxjPLyn3Np/ymdzFC5JUv12oR8+t+5ot7+eZ/r8XKbScjJdzvSUd25XYxSOjEaXV8P6vU9SAGGuRQPqWyeM9XlcInQjH6MoPqDy2c2lrZBMF5kW5xctlS9nmSa/mDkX9bR1JQq/hLVVy5YryTaWIwNJmqSFNoQ2Kbk1uym8/7ucGfmKYxxw0nPO2oGPELwLv4elGUnjp1WD8XJ1dwByd/K8/AeI17p9TJ1S1He25OFznh+6jDHuU0FCIjwv9MFNkslpAXw6iWAsjf4W8h83/7zQ/JAN9KMvH84t6PPLK3xg9S06KMR/LVp4O97U1yJMt7U2j1+Bd1PA//dU12vK7UqfWvL4mFKXECIReTKZTKZnOfHJJEHco+ivIP8B0dWlxcOefWj8pMR88XPzJ70qmZ9fqZ2pTS2E8OceTHwPfS0gN/itAfjvHHgb+rWhL5eb8yiv8VPKiEuUx7SxwCviuZXDvUXuDkfenurd3KGJN3WopXs/P5eIT6R9JvlSPvH5RFZh2aP1vzedZ30PY1m7yTPQ7dB8Nrt9VE4Deft0oXxKOZEkNUepARMviSeno2L0HI/KJJEMylhy2k3ovdGFDd0vI3OzpbPLDiOBJ6u4Z60Put6srZomDp4yEHlyDZ6yS5gwCvIHB0pUexTFZwmlKkh5ZIzQZzXxJCmRx5GLyAPHYQ7eNpv9kSOz9qMfkCL0a7FaOz2Kv5VJyuXZ1pfn+0WdvKxfycQB+EDkGWbifQfM5r+nHvWdrglzivdc8tgoxo2elsSngBtsBZE383Lr/8SxQod5xTIbgwileHrt8Xdg4q9r+VD+b/60/xlZmfjnT3530mihT3uIY2I4ELlOVnMA3q/Z4jmhnRubHeoariXjjLHR5Oz4DH5y4og8KpFzRO5yjwYe3Cj1fR8OkHAjHnV6RPO/+vDPefYdOJiJ96u/EQ0juRonu4p8U56Q8w/fxjtzJQA+DPnR6fOex94+Jo3Bs+QeCG5CwghhLJqcAe8p6MwSR1+Jc+Ta9xG5yGQoApdxlss1oTScG2MkPOt7Fu+mT5CJQ3W/t+Zdl4s4rfz6y2gHUH11Xp0U3eMpA5CvxeNitu9hYOku4q64kxBxkVyjCfKeQEYOmiRjJA68R6O4WOcH5JJTjHAalGSLe+oRhiKWeqFGwYUWhLfNGlKEwz7rEuc9msquSpgXPYXmelR5PSQvLzJxOOvDkG/446oNvN/Sr8d+AZy6gFsyksukGOHTZAKCR+MgiMFU4AeRh0A8s8vNYUitSJn20PbAkCvnXbL3qeMzNwwDb9My8f3c5aHDqNHE2Z9eTS8/VC8lzYIXPWUgcn/yGxLDgwQJY2p5G244qZROpwB8koBOIcyTRAWBiQA5ZOQagTPHIhea+hjlFWmvMweyauZEvsekkobfLf4ZoPlNVRmdXeAEFsr6Rb/Wx5ftLwQCX8FIMhC5xmLzQGHCGAXGSJdUYlkyPZuenibjcZJE0fQsMYSkAWMKfEUz3xccCAYCkY9DKXxKmdNi3EF+6ylPiCMpOZjKIFUTjKVbXE72u7LSz4vS9ZvlwGDkEzCVAZo9how0lI7QvSdjpcbgI9F0msQKnj6KcXiEm9BYqSob5UYRTM2pIX7u2dTpJ58bC7yOgVVpvhyIfLWN/OL7viXYWp7kRvSt9GIgPhj5+vp2GPJr0pAYTaenWNcLoXHKcDKdCohr/BKojIHiEKAJAtQBOY6QpBoT0dSdSt2+gqIgQmLQ4l2QXwUHTaZ/q5CjFoORrzcOIh+i6ybwCQIfpVKK0TjVGlwl8Anu1WIEKHGNwI2x1Y9FrjjCbMd2z2xG/pc3Ir/ZQn725yB9t6ep/G05ELmDenOUi/HkFIbMScRdV0JqonUyTTKXUh/EFHOsuIC7YvjknDEf43bXtq8WewrCjIW6IYmiKPufID9+F+QbVA/yWV/9f11FuE1RIg3Ej6JICw25SujYvhUD0JVCaBl4NwFurp8bCwtsgt2tbUMpsTOfSB3rNNM9yOeLv4R8/RNTlr+LHOcOr3/P+qNcjJNTBD7WzPPcaBQJIaLTSWYhSYxy4nlCCtfzfJ9S7P7MkbthQDb9aicvGOWB0KbHWGCl+enfm78T5Yj8w8keyBfLgcix4NEs2V2VAnIRJRDhowRM3PM8hqYiRDxJDE6FgEzo+6GhKI/DXVg0IYbAXIsC6N7gHRBlIhRmF3K89KZdlPsbUf4JS9DXkc9XcNIHIsd1IIfK6fWuKAfg+ZxVfOSB+HiUui4Ye8Ida9soMF9CyrZPa91oLIq5AVMsJ7k/eAfl0oB0I13gsjpqc/9r/v5R/qk/yqtl5qf1Btb5e5B3ZyyzOa52UhbKgJnp784ZxmsAbndLpAyJ69FYEeKmk1Pt5DI+3BFBqBV3i14iQB5rl7GQ082Bor5Dw43fiXz5C4CX2jzdzN8b+QlG+ad+5IuHpzy9evq17Ebu7Iry2+vIYzJ0McVjnnm87SqFRlEEVY8OEHgQj2JpiScKTcWK+XhPAvQV6RUNoYg8VYCchX7J3DkE+4awDuSLH63e1IfluyMH9SHHK8TVn+THzfIAY5mtTt0wAN4qIiimRs8vcpnVGRAfpwaB+3o0yhgQz5JE22KyEAnwlPvMtVhZ2VCeKSMZc71qHvEg5NTvQI7Et6Gv3tnLbZT/3IkcPWV7lezh5gDkjwGGt/n0+fzKQmfedNZaqbieAvFY+EicKLBxQkigkbhVGeg+r6ccveoSOFoLaZj9EljgB8p5iXx594LRw/x9o9xO9vYgX9y15/R/zPdGPn90CXF/XnwEnV/FyHwL+Wz2/DgC4Ip5KFdHKSeEhCpJUqdUSAvobIPyTIHWsciVMcZF5Ggub0eOn3f9X0D+8XsP8vtNSwcgXzwT4l9+/PDR6vw7IVtRPlsdn8VRpKVnJbM4w7xEpkCcOpW8/LG9hoLDylTPwygXSh0ZLpjj+0OinHZFee5mAP6vRvn3suH4NeSOczBy8vljqU/wWwP54vEYi27u5ZJprBm6ihpNxv7WpEhjPa0g6+XGIpUQhitB4M8HM6fdyG13ul2YRvDvj9yxyI/L2bYe5NVnHo78ZyPKZ8vn4ySOUsEK4jyOBQEFYpzEFfECNWX+poGclsOnNEpwnmXEGcDc6fbyNWpjqefgO5CvhiKvjynfazfyMsT6kHdNa83ayMsox31yx2mcRCrwCqk4NTnxKIlIizgui1bMK9dG5FIJpYTm1QsPQr7ZhRzlOMWDh3fOWPJjNn3It+U9dSAHwyXuq1H+3Q6fNjF8PMVl+rQMcZbFOsiJw4lgTkPVd4wWpLH2rJHzjEuhRNhiPhj5okJeGsz6vb3cbpo73Ru5wzqjnGBF8jpyxtPjGSaGSQrAue8xU9h4qhgBhRyIuy+IO4WBO3CDhzVyIQPBJdeKgxUdXA31R3lpMF1Rvtqsh0f5YcjZjuHT8nqJfImThMcXRcJykmVxfPz79vl4nMaZcD0UxrmIU05y4uloHDq1fFYhr9RErhkLhAwzxU3tfu+IHOV0GQueDBxdh0S5XXMe7Yfcp7u8nKC6SiECkp8w0L8lGkI7SzVL0zhV0islgL+piUunoYp1E7lTI1cBY5zDccYENXPn/ZB3G8sckFu9HXlvkkgJ3B2I/HYqCUicXB5rAJ0ppXQGLsK9SkE2HhfETTYam5fLZva/hhqlkDCMhSYMsCJCazmU+XIActSbkNtF/hRjZ8dbeLjbvuTsj197I0c9TwNCmNFpmgOHB1qwmrhJU+GGBBQYPR7xNnEU6ULu2CjnjDEpcb1BBvRQ5k7P8FnrT0+UD0eeVWe9e2N1dZnZzT3Omh+AHAueCVcAXNsIzwB46NUSacYxCXdNaNR4JDqIg3zSRo43G+UhIA8Co1QQsAPtHJEPjPLVm5GrnciR+XIFk+VWdivXIchRkBGeWeBK60wr49fAmU619BCux9M0ahOvfHyLZekziDw8wonEwDVcCJcR2rT8/1vkdiOL6UGOgpbP+41zb/f4H4zcTl5FBfAj16sVZqkIqCUeSijzVYt4K65LEacaPl2BzVzGlYYrQ4h/GHOotv8XyO0eXLcfud36CLuwAfgA5Aj96/V0pLUS0vdqcTAV5uTEQxWPtfE6g7x2byu/UQoxA37CQtflwNwl7MDpxDdFuU0ThyD/gOoZwevuw9pTevPybuawmXykOPNq+SpVhjgoPwhFPFYAvFV3tpJyfAp/GsgDGbI8zEMhCGGkNdAejHyxH3LC8mWRAcgpHnLeQD5EGOWsDzlCn68ejVfL1ZkI/YJ4IOJI4y9b0LvJbSNnYQDIpYvDr5CHMh+OHLfjDUQu7XbnQcj7jaV7qb+CbjItAq8kfpRGumRNSSvI+5G7rGAehlwQQly/9dq3G8uvroLfysmRXx7CPP5ikdsP+PeRz5bXU89KZIoz6qAIGHEaZY3o9mkryHcjR9x4M6EPN84xvadvWxXqKfjbyIsox9I63RO4l3cNnV9UWzzegpxNf8/22MGvPY+pTBnm1MTjLHCaYq0d+DuRy2IDdMB9GoaSM0JY0D5DByGHprdtQaZ204/cMjwJ9iF+dlG0m182v2jDo1xNqzDvbflMtQYbr4nrOA2dbVFOK2D9yIsw55J6XNo+o5C1X78/8sXDNm3UBtqedyIvet0ApO2L6Jf+hsBR3/Sm1Go+hPj8FwExxk6v9+g+XD5Po8DbIi6dF/L9iksP8tAtwjwUlIYyNJg6STIwSZz/umvRLgRXaOlEjhp/qdrhxr3A/aqr6PKssXfs6WFAnC8e7knB3Ex/79GqsrgeFcQZQ+LG6RKhFeHdXh6wQiqglIdhiO9D0u5D+pHPb54s7K6W6zX0wXYixxceX7Q69/ubsz6fuCVuK+9ptTy0Ke+JlMQDkaXHt3u0aMGuuYK4SpF4txiy6kdehbkQlAbA3IZ58NJCXkX+9d+Kdqe2KsHV1rfPPSnbl3d2sIir6rsQN3hTgtMVpKebvXPS664E7nKdKZVO+7rJ6zkAjsQNEOfOTtFgL+SoUFFKjXRdAjJsT+aLekpjbWn36elmWSPfVvqtbBn/knQA31SXsLg4boQ3Y/D+Cci927dJC0PDAjdYAiJwlI4nz7evMr8d85z4kdMj6vt004c8dxbkriSljMMjAjL+IV6O7bO9tOvtgQ3k3Zep+Pjh6qhNPLmsnafm7QZ1Wxpz7/Zrb178KiPc5UJrlStVKnp87neX2fIxk0qINBPU6ZfxepCHgWSowlkopomoQHYgdHYhv/mx70ZptPRu5Bu37rn9SZvAw7KX/OOXUdHF5NuJCtIU855ez12Wqx+EhHZTLQ6CqhQ+SifQ5txnKxMhiUlHqfCcV9Wd9Hk+IJdBWA6gUhFKCQ+IlQk2rzB3UHP7Tb3fh3Yxjt7Z8v9m0yFd+fXltHm9xNJTvue8iRvIgHRoDds9e3Xzr0cQtjK45KNqaZVl0mOjx6+7W/cNYUSKLI35q8DzJcA2OYet14DcBEFYhbmhOIIysttanAbtIilePtzvhbvWHRz076ZTVVbysex1jqrLDl0d4SdhrpQu6RS6S1/C+PXhnhFi18F0lOWkC0Up91Bs8ryjAP0PK+e62ziOhNGXYIHNEovhRbIl03Eu3UlnsQmyGUwDPWjM7mLe/2GmKNuiZF3iZHwcyUps/9BB4WNFhipKAHApirTA95UzWg7FofhrpJxIMtFBi4pywonE4SL5x28/xdm2c5fOX9lMo4/r5FU7lsV0U1pedhwnyjiHsMjP3DCObjSAYGpLZH2X4a31bVWWWBy43p3eNpFu1FrvjRN/EASDZyhPkrM3J1n4UXnEA4EMK0dCaDHh1F6LHlmdt/0ZNofkvuLhQ7ePXbprUCFm37OYn5NfvP3n9z//wIqstbWvq8r3qLceXZFp2rmU+c64f/9/RaIzjnl43yxZAfaMZ+U5zJGiZFyEPQ6HtmcUi4vozvy1fjr2Lt2/91vjooHzQJ4PM568w+HNomvbcEln22mrjZTFgJK79Dzd6ReJ1ngg770SR0DOK88UOglHNtIpd87kniU6ZOUQFbRgBJFjex5xGduZglfMDE/Usj7C+SDyeJZhiFseRlOl4l6vt9thiUfJFEPwG194OV7QEkPjGZxXPiYrN/1kUS5KxhC0KLJKzkrOh+JStjPEGd614oTwQZRKA0PyyJ2qnfm7qsr75tgZNu2u3kg5oTz69e3//pUm9a1037gRQ3Da+LJy1VeOxuk2zQnQoQLlzIxEMVB+Wd2C6S52XT2X8Bk4XX4/Xvgpj/Nnb3ZlWTdZeV2DnFJO2yqG5ubXr3VyCsYZcGS9D+KUQn9CeQoWg0eIQGokr6RO8sHoOS/5QKK8iOrh7bxSpXR5vIVPgshTQdNg56oTnm7+ruuUK7zV/FBaTihHW3oTUGatAOS3TbOZ8gvyE8q7MI/OWZuaFm2M3ANzOrvaBt5dtLwT2kSKiu7uCD4Novn539/+jGmK+FF4Ut7UbYtYeSczRSY2DTvBXiFrbaK1PmoxRUEfVW6cCfagPCK6VrYOWsoiHeCscylzC3PJ8hboIi10g9v1j9fnp+e72xXBMgoRayrLLHy9quvrpmb8tpCTyn1ljVGQjRbJOLHxQswgYWR8SbkjH6MnbDGILsgEKrlHA4i5HvBiykUvTiJRgHns2/MV84W373f3CEuQQrS02t2z8AO7pr5m4VsLRk4pd1UdTVB6ZNyy8Xl08QHlZG1QFDrlGFAmEA7KGfFeDyguGCcGFjD3r8l3C1t//NHALAYoVbln4buj8N195aum9hsp9ZTyemuDMSgnjGsxDer90/nKMQSlgsPOeTSH6pZ7QEs5r1vk/T/TLcCl+IZFyrvvLLyD7b+8uXnlBpHWZSc8jXDfeX+9tQAseaw81paMMj17BaOy8SUgymx8Ubk2xigVcY9DVEHvnaNsKbTUUsz2gCL5FpeIEwfvYH88svAB/PvT2sAMZJtm3fSF73aNL6OWckq5ZbODGBe6NR43NoKU4j0gaCGkfl+5Ck4pwj2Bt6hkSwGyJQTj9II4/SnluRx0yPG9gPv2koVn0k3fWwUTBFNWzaZpjpGSRo7d7BrrQU4pd0SUQkWPjJMlRHEOSrLzfG5zytGx8mhysoSQIwUNFqnc9YJUfk18Pk4i5ThZwJTPnfCR9O8/CEaYypd+s6la5dyy8NhI3q29tcWEchsckWHjxZTxiOJMFPTPclZ5UMq5fpnDvjtUTnaxXoiFKyxSfj5OIpzD6uu08DzX3MKA6H0V7WZj7aqquMS/7RLcldfWailByiB7oI0Uk3FxYtylIKdCnA2a0emOlGtnlDIxVzmmspNFkSsBtVy2ivJjuhkdiCjAWfi3LlPywnny6+u9gQ5ltz7GWG82Davnkahc4hwrlkpEj3hS5UCKKm+dc2pk3EVbOyk+QqEnTxxEVm6M6q2flDYt98DheTFaGAHnpneOE1JwHuZmlClXD91CmtPla4nQEq23LNAm5daWnObVNQ+PbHzpXI2AGAbKsSgM1caEYMQRqVHrZJxqr6T4IDBVgVK0BpLyfbJEhS0mPUeUQ+fwrnN+nFHeOU4QzqV8fRjpfW3i7bjwX97svsJtdIyNcbO1ddNcV9VNVTWNd84iAijW3ClPxezIWTVYOCVqBLJ+W9URxcfBKUW5yjGycusxY5w8oGWOliXngn/O8V0EInJwPvZuVM9fXtYOwNDXh1G6vNzEutl6t4fS6llyfFerbb1qEGtQWIT2tA7KAXiLFNAqlCepgi7FOGrxKWBJefS0D/NMBDmKFkYs+haXipOM4y/iTmv58Y2gRTXP30+lPzyXhC4VuU27prKWladr5M7VwBCbxi5X0pGiaBA9ilPj0RIRFmIWp8QCuphXrt0hzDMhL+e6ixZmUflynGDuTs7FrJ6uRsLvPBzRbsdvOHnHw1eKIRA5560lst77xtSI5AD5wSrloJwCOYWorOhRMJg+3a/x1v0g1lmOWALFrHKVnDvsQ8VMtCwrF9MDRKXJ3cnZ4OpuJPzL6xoG0EQv83i7NcY4v62J8VuFWKMCCzoWhRmWOMaY6g01nBhPK0HfeHHULMbkVzTK4Z/mlGNMygP2CEqOo2WhOxfDZ9GPE0cUDXyU+m3clDzdEpxSfuXoGcINY4yWYtw0tdMSWyASm4Tcq6QSirEtcSxEMTRO0TkihK6eey+L83Gy76inHIiVh4h9ojyQl/Yc5wsI2S/vv2k726W2fSaK3wQ7+9dK2khW3hVaIKXwAYbhA1fA/d/Lk7UVx4pkcGieMxOnUNxpfjk+Wq3kgDSxOiln92WmPL27+rz0rfjRx/t5PMha50jCgxGBtVbD4tCg8jaQEMchyHbgPCgOiMvhR9DxZEGAz88euYmszpPFU2lzU4/z3N66r480Rxs9/EC8eikLw/tGQV3+oZIu+8ZGQayDUCZEHc3w1aAiH1Xr8Sw4tCYiTsRHCCNORW7OXf6ZkIdQIFcR8cKq5XPYL4ZQ9E5+XhhKv3A53i9s3PpdapdMj693jJ3IiqmNzqacxkdPIhgaGdFwIq4AM+A0XOfUE6HrkWAxKgpyzpPF4Lk01JnLRGg4bqjgbfQEP5OvhPjrH/sFcEtEu/un4m16mSez2OQcjSd5x+KsvOxGo4wZEkc8W/ahI8twZucLkYNVSoUzm4fS5gbrzOkG+7K26+jDT2Ufnmsh8QXw2F2U/uHtv+LM/Vz34xE1gL10sDHFeKtkdQXGgDRWIhscxg1Utq7gz12ewpwDFTYvKsXEvOjYJAHH6Bl+rtX9rJjd3K++cTixDe3lUXm37hpMMqB7l4P37IV4ti+ClOmIe8viap1TZmKTDF9nTngBci9hfoacuUSOJkc+HFEQgo2B4B+0+3gqoL388d8ADy1wIGvntfN/MwxfiEFEFZlZEdFw949m0xEPLXHdA4eOZzdxSsud9dpFX4CcoyBXlMnrIlqSbs553+jorGf4J9m72rQmfhMpvgMO0VoC3tWmT/OTXzQixCDE2efrxJqOxIMNxtARX4dei/90Dx1infIFyKkNc6ZMgfAkPbS5MZgNHdFGt4V/E1dC/HHfEFQVk8O95SNwBQBsXbVJYAe+Cc7ZIMh1lsxsREI8BuaQZ0pIoSrRRJSnO/4MubFcIqeAtWjRCBKCw/iOAf5Vu7dKi2rD04D7DjjFSGjsXdl7/NsWjDGt/xCpYL14/GQdhBPxYCEPcZ0Xyp7LSL8ceZQwL5BTwdx4ViSWT13lED3Dv2vzXobw8x+oK6ZIianuZ2u5A88aRc2+3AnwvOpyMkqotMWhudEwGIp64gfhcFQlQtQG0TTa2w46xbx2MeYHyH2sICfGLFo0oVEqRQtoijEQXEGuMnt8/bBfOzymPoKKHXBJYEwyaVkji/T7udHM226tEbTWbAbE8Ujc2uw2CeRk7cbgQVtGNBFRcwYd8XLkytaQB8BeEAkhraKg8a5xTHAN8eqtUhguv3a49z3w0D17wIH47qXSo5lvOcjJpLVWJiu3UBsS4j4arIS4DZjUpOYYQXb7Cl6AXJlWVeSkio45msjRpbWGa2i3r6yzjczuvUsZnq4uuc7SM2GmT6xF+usfy0TeIw6iAAyKFAXJcUV4Aq5MF+LKISLsjG3ki01a5QiY0udS5DYhDzXkDKiJlUnJgoZMaNbOeriS7L6SKQ9xFLgiImZK30hNsxCVxkKw3pcF48sDU9AIGRYiuW5DCJ6N0n3pZygVlgIadySYGo+I0WKCnqXLZOTxqzD3lkgleyPFEJzj6BRcS3+ei8x9/Gi+dDirBDykOolj0FgVb16KyPr71mjG86UF7a0LwQfQdISIx0xx7UFALJwxZiHQ3XFIVe17M9Hlnwk5mVZcSxalLONRJjZNDAwABNdRZZB7up8rqCgk4HQEzmnopugNjirW2rrvnBMXMhS93XoZVNP3TAIeo7h5TUSbxUHRGLtrIx27TAkJub4cOSXkhRCJggIVlIoRrqjN/r/yuv8NI8CjIlECrhJw8JHwCxmMH7Xk8ufEA8nQydR/k7tWmIS43hFRs+g0t8xb1+Z7linwA5c7HiD3lCQmCq5xgeDKqvjv+T1CRexcpCQQ0RE4R4XfyczLtu7s3uVhHoisB2M0Hl1O4vE2xNdMFBdJ8+Vyx8xrRkQ7vFroBy5vnDqIcjG5xlpnMxTXiBZ+r+22mgQcfAKuImv8VoDw5600+noQLUKcLRgzsL5Cg5IpWwdAi17yu7AXjpk3iDhEri5AbhJz27CKW59BV9a5tSO4vkri93OuA7cEMADOPlnde4MTRKh8/FNcUq8uI64iGzPkR2jQI24AYH0iPl/ets+eORrEf0Qe1s42rodN5CMra1WqyK5r85XEeJYpqzjicAUEAH2Ie3WsVwgnKXIg4OZDRuqs9vdH4kykPIDJhlTbISewi4GWYnLRhrkxkS5DfnOOvLEHKRJxiJaj7elemzk/z85atG4a8KBgaognHV9SOCuPZrO7AfFotMqrGMYoyAEWi8LkosgR8YbUjZk2fIp65MF0EuLOOSZSzkV7Ynp95n8eZ5UNWLlUAZw4ASepxKeJ1pT0aR6yScDs2Q+Ja8iRS7A4QZ6b/BjpK8+hDRZlE9tLkFuVkDtrt65ptkolg/+/kNu32fC2k1+TgMMROARvcJqMCo5Oy/g83No1m837VDEaUefIVRcsEeb52Cmar5YLTshvAqVTLkDOx8J8be167RqnptGlf6kPB4Whh0IkwCkDrk5zIMKJAj7eBJV4fq7vn07MPzriJMSFWA05wLIPk3ky+Wo1X/TIDw+MlyIHlXqJm8auHVOJk+C6zD/+zk57NqvALavs/0FH4CoqnCoKACEI8Z7HJ877YWT2hqSEeL/OmQdLQt6inp9MvhTgGfIbVFIuXuJyK8TJH5BD379gyHRd5L3VZm91hx+Bt8dhmvvJIY5aiEObKwMEn7A7jiOzl4J4FXlH+3a+ELvfrsTpJ+RJhugS5LRNRW+MAClUyF7b5nXk+xpwzwPONExzDzhVoNqXYokgp8n9JfYsxAMUxEvkyeHz5a/V7Xw+RN5XloqmI6e4jtBKWQA+JiZNQU5XRi6REs+Awwk4YVXGgMgYPInSC9iSyRl8ekHe6rkgPoZ83iXL8tey04F7Qp76A/LQZiryQBGSBLnKgF7Z5iXyycCVZyyknFsu3z/eP/b7/eH4/jDfWUst8WNHvRjW3MnlREwF8RJ5qsaXK3mS30su1CNbNGeb4wCnIR+AsyqF+dQBFOiKyG0JvNlsdgdtLAVfhLh3Dx8vfx9nmZ5e3z5+ub7ocgUEdAOXM2XFYbViEeCpMExqwQd26A1r+VnqKxa6FHn0fZgD5UhpMl76GfKts/bc4Zu355dW900R4os72Z47y24AnSX9vb9bdv+GL23nhlmOEg5fuZzgdi6IpTAcas7skNgbpBuMeCoS/STkPSWWZMnJ0YU2t23oXozcOmfVGXCg+968H5jLyfZDgV0okX/ez4Ggsh/WDLJc4bfIIyxSYZhr2Qhy0IB4gxYHPRajJyNPwELBsrD5KHPfpK+imow8AXfpTOqxE/D9Ec7jHoeC99c67/xTQ7hGUw8qloJ4fcJ/KyE+lFTqzBY5aAPxRgtuGJx6IXKu+ZqyoawuBc06c/sk5OPAYRS5zRpU49BfdhWgyCeXC/Fx5IwRkWCdQnyet1qYt6j0QUQ2DpAbefjpyGMAqhnU0/c2Xzf5uxQnIffWNQ4K4ATjyDevo8CLBbcKzszlN6PII1LbLydSLe10SCX6ltlGtEaLjNfnzVuOOBE5RwCuYbW5zUvm0cbzvw9+AvJm3QOnLMlHkTfSoJmov6uvXX4zjtx3q0Jh54lsS7vFLZmyWjDzRhmzC9poOkjDzXnByKp7ypB/lsglD6qgQgD1VbK4apBE+ha5AxoBDhRryOH5jPjspNL9r83NF3X5zZhYikRA3LHWekNELiFve1yWebdmNk0jtA8Crc0Wz3ZtaZJjkEOJXJSPn6UYII5NN2MzGiJ2QpbXgQOzqiA3H8I15/349Pf19fXvUyrR87Wf85oFbO/yUeRphR+RvNVaR4G+FuQy/dyG4HcsPrdEluwxXbQZuFwUiw85wwFyGvhydOHNty2YUmFtx2tyFb9HHmwJXDEhVJDPn2b5fuj9+8Pv+XJ10O3vh/f92+sZ9LM4J/Kly+vDJyIxopMxsl2glGm/LO+HW8/M6xCsc0Rb7wxpLZ7GfKkiuXwgMgfuGfIkhhHmkSAUzH3zzTQo8tfIieSRXz/ECrGGHPaz7MNAdo7RGINoiGjLRrlNfhv67JVz4uTHXd4jg3TfRAREbIToWhG5WwnxXWTmxkXrrLVdkea11kpOIRTuSao/ZCV7gZzGkoXkIYbMpLbx+6mnVV8gp3Qt5JmisY7cDVYY/tuf5qRAFKMRkYHdy2zE5kQTXd6CIzBoNKJ3WuuwEPJmt1OB7ToetLXNxjkXwQKBNkUT15QuhwnIC+w2Y+4amtJetNmPxfUAeX9GGGSKQRxB/nuwkHaHvYiihY44HkIznZi64iffARUuH1NHbn3cliiRbhvNkuq08D7a2LjGiTqjB1us9FPRdIEqchhFTt1xy4PSscgMis5mdw0VBaNdr2MRLHLs15QJcQw570/E39BgJ0PekWlFaaQaLK4+NhlxioXLq0LBYzAgykM3pJOcEnm/XjjRMirVWSZ5m8azHCghnyjqHhRovBqxznqlrCMoFFUHvPFZsAxbKn2IV5AXFeJsh0nAjk0rgGNxwMI16Q6HxGHE5Zj9KSWvSR9xxTKEggDfthuUFfPOtWqijRJqHgVo9isqqMhybaYgL3M6jI6K4JtGiYL1UIga63aN/6pf/j/Szm2pcZ2Jwi8RlX8dkXyQZRTbYAwzF0NRXPAE+/3f5e+WFWTHBwKsCq7M7EB2fbNYbqtbcUEpz46QJ1x3L+YSKvpeTJp3I8b0wbiPRiXit2R52mEb3oMCaxNqRc5yipLUGeM0yPkCxBg1HGijpYW4xeXLMP/S5gSk9cYYhKRU0aiNTVu5tflxi8JHjLvIHX5j5DW9lsucXYjzee/nNb2SnDyLxOkqyw+hx/1pmOQxWMAVik4h3lS60rosDHhJCLEKFrF2OZkjv70fwQyhcv0Sn+eGzmTy5YvunfZK642KJTXxgfIx8maGXIVwz42IWu7mFk+z3wf4Y27YzS5HZZEaFxlI6LCbC74AefS3xSPeXaHyXhmNzLNFQtF4HZsk2M+Qk7wpNhYEpKFXKgybAw+RorQijM2Qz4Gj2LHLl8HCY6akGE82H1Oj6Iy/0sazIDXvCh0yj24PLuCMcW4E5Zw5pYB5ned5uFlOjXmuFKOQKDiQnmoUvgqWTOwgP04WJp1ch3hyeK5lgl6QII3Ao/LGbwQLZSJyvjXL74bM5+yT+KoX4V4vyF/1lCpaw8Gb+Uoipv9RusQd52GySAkOylmmlQLUeew/a10qrB0NWjjjkTSKropEvlOxHDOnjVJXJmc4Jh3lNRzU2dMoYyjTufbpxUJofY2cMbDSLcjVrGJ5GdDi6xiPLif28fHp8QkeHRKPo9uen5br5ex0IP6ZzwQ9mvMCLxm8Qs6BeF3bdhrjZEowbsQcMlm7nGQBOftWc1lLdcWcaV185nciH5W3rZMz4KCiWSIPm2NuRL643n8aGppi/FpAh8RoYFHSSHFSyyzn/IC5ufxgP+0+R3EwnbZlmCKy8LClz4F5IeIS+apI3HF54Zdod5kj8Xlvs9CyoFGNisYGReNrd66c+fxuxAPMZ8gRB89uRZ51d3fLRa2H4WzIlTczPuHKwpPkcQo+U2zm8oRmR+L0uSTLJuTCE6+Us2VZtxWupYE8JpZmFN75NpdfX3JSRcw+cqOC0kKhp1GTwysN6CfaWt1r6ZUqtKYX4AQPZoacYYjfjly/XC/dvvx9e/oYa6mWpUZ2UvF0LCbg+uLYRcVyDD1tdcMDritipQ4ImtYGnw+1BaHLvcnI9N7kyOUJ+cLYBfNmz+nMq5nNmaFREX2uZ/gbm3s16T7XNAIHLbI8y76DXHxsNSieX15e/749vo+VYxG8IipmkWQgqfn6wvTvzH77yJH3BLPAJYaA/DIX2tkS5HMJKDJ25XK6nrEg28hRdC9hqFZB4QVG0SjdBOxNURStPAN3XICQ0smIXDonmSCxuPAz5Nn3kGdyow136Qg9P/9Bz4+lLgigjusvIOWKzd7nHC7fR37Kpv8KwCPy2PGv6y643AEnmsUXi4Q8XpB+drWz5PKVdtcHi7P6tLmnF2kdXA39ktJJUOucqysFyosI3bicReKC/gK5GJ73W5/PEf7L24ctfVZE4joQ33P5QbokfCZLyJ1S5WU2FM+gtc/VzOVinuUFP0XaKK5IliHyAJOym86fRYn4lPKKpGt7PBRnLWXlwN1S1mXZOa2bgNtdwkVPwEHmx8hRuJfuWHFiqy+VpIzBgXDKd1x+DF0sqnQegop4RB5V1gDda+ClYpYvgkUsf2TG+Pz0aW5CThqAByi9NnpiroLZ9VlKWTpQ1/e2tO6Mq/e5AuER5Q0CRxW/QU7IQ5piOeb++lEaKaein7ANl18XlxlZI0/iBInzk0nIS9uF0yfdcjnLDFDfz3JCE29KKCU7ivyU9DqdKIsG00RK6xq8c88wOFAJzKtGgaYw0lpEyV8gZ0KQdO+VQ6HVn3IfZ9LFlsuFWTE58D2N1adS5wgca8XKeY/UsuutcXo99cvEHLlKWBUzkuxIqyh5Ty8KwKuqdLZv23Hs67oGw2ttcykria8Nse4jcaJ/jDz+nuSwc/ZWpw++yIK2s1yIo3Shq2UXkMS18nOc8m9r58BXGCxi8SpuCjgeIi+WmZ3aBkv5T+Q5jdLwaJqyLPHGPQ/hHj4Q5rluz+dSSq0jcnlp3JAfu5yISYTk9dufKbO/gv7ngSq+4/Jo7H3ofAN5BggaLeVUJ2rdNMacCVkWidioJsfI11XijoyKMg39VHjjASJlxNtT1dYO+A9wPjcNMgeDB+RmAv7z02daxJqs/phmV0B70J9HQrE623D5zlA4Fwn5SlgD5VpXUsqqhCdNHiaICMRX+p5CYWvjtBKJp0+2gdz7ncpRqosqn5g3uoU4QehD39cYcWB0WzeNc9JF5Lq4XAuxHyHnRFx02VRImvHp8e9fIP+/ffB3f3JJTnt1+USX7ES6SAZPn8GJzCtjmgIUzEYlk16IWLGIk1AZim+4nMxdboqtypxtZHnMlkbTi3wFuYLEhyEgr7saoFfV4Fwjm/gd0k/u/KHLxUyGzxFKO7x/fDy+/Xt9fd7k/qZOX9Xlgm+my9LuITY4ZwW9Z0YWhdO5MXnhAAAhSsVPXTSSZKBNl3O+CBZ1y2JicnnRNCoSl7os3WAtpAowH/twUdYCc+tchS7XCpRrEaV+gJyIJMLWS9ucmLLuH97B9X8i9WTzcmfy9qgoz8gcufr8YG1RZCelGBGagfIClCOv2UpMlNgIFrZ39Ynt051rUq8uAgNTlNMur0rX2W5y+TgO4PKwClGjy/WEvHBSXPQD5EwkbbgHCEnmpJTOjg/vby9L5k/Ia9PlR9DJIlgCcx6xCc3xbNLIwhe68EySuA1RFZk4QH5KdflqhJ/KYr9ILBRKe0Op8r7BGjwi73sgDocOFzWrqnMhy2ORaH6DnFyYE77ZwBGFxBGCErdm1sOwuA/L3T+14/LjKyGyznJGwzF0QgEYWNwIISW+mArBPA+txN1gEWyFPEnRzYny5HKfe0+p9F576c+Vq+3QjQ/jeEEONkeXnxG5UyBNf4N8qldIXDbOVsiVKaYbY9saZbuntBbz/Fptz5evoJDd+3xki/6lkFkWyJjQIEHfg2i20IY3OEnIb95Fm4Ill97ljQbkgN05a6EoDxpQNW73sIj8HJF78zvknIrx76TXJ3XtR0U9Ire2ReIdfH08p9Z0n9AtXb7CwvYu+LPFXwqMD4ZCY5OcCOFVvP/Zgcu5OEBOdpDLhNz76gy8JSBvGtfZfpyQ95joQ91Wk8uri8t/h5yHZnPU9QhzcRJUsntpbRmRd3WbPh/huZ65dpnl5BA632tEXwJE4UGIgpDpWTYTOQ6Wtej2v0OuLmrOucvvfZBzbhwm4hAuk81tQF7JJlYskvwKOcgDrHg/+PfTQvTEjGRaWrwaAIXrsbfZNEACuMpytrbiyuWrdDHT8KnCYwHkHcK+6iiqbwYLoUdrLAVgtFUYyQtyZTP2D1Ej2BxXtxJyqVDil8iJSu2JR3Kd5YqmLB86C3qcIU+OJTOXM7btZZIl5NtKdNHsBQf2693XG8hZdoScHWR5kTvXNkDceZS2Xf1w0TiGZKk7ixVLE+vy3yMnGUtR8aqvXE6ZmbI8VCz1Evn/6gs9cpXlgflBpJMd5DwiDuYmSD27FhEbNeJVlrNbzp8yrmlJ5XAyr5Feu7Lt+/ph/EQ+TsFS49Xn+RfI6Qw5/rZnC4jLLOcMgyXWK4MF1W+pZCn5Z2T8p5cVi4mRsQOdbXD7bPJglFOPz5jMluKenb7rckIPgkVisqCc07a1dd8Pc5eHZLEtIndYsZgfISdzlwdm77PpcrV0OV4KSakt8I4dyTINgr6Wn/iYmLmcesAndtJF8IP2f7JFtim2278+Qq7IlpyKKjSqsiXIdn3/MGcOqm1fDfHqs/gJcrEIlhOqvEvx3KfkRV7Y5cTOVFX3Xbj2le/pxf9MHMjkVAiTkCtCVIrudbrQdDrdRk7CIRx9lkT93q5pln0feeVVVK61a9q2RHUL4gH5ONXllcQo+j5ywbM1cvKabP7HpghA5IQgcCld3/WdlXKYvfYptiIKzhcuZ4wyqvYHWdhuuhAMcb6sCbOLCgT+E5dTton8QlCWZ+fypmlrcHmPSR5LRFQ/9tb2WlaAPFeTiu8gF3hYIc8+7ua9B5UawSc0SA7AG1fZ3kn9gMSjoCwnaHMs47icZXnDUJLvnyczsn1fLCIF0/NQSSdQw067yhg/Qs42w7wpVJBu7DnP83PbQrQg8SigjcKSpSylhMcZaC+Rky+Ri2yNHCUXH2n5OJhk9IJQpZxzLTSjdPc0cY1uxrimlIOons+XU+MYM5wXe4hS6ogFSAZ4cP+GnPlc0ADe7Fs8LWvtSe23m43UrspBZdu2Q90H4uMlyB8gVwZbt6WVEsty5b+HnPNsB/l/aPPlTGLlxcSc3SPz5ly/f7wtFrWee5wtDBbH/s05IS+NkZ5zle0zT7GiPrMeacdCR2VJLA3yHrj8B8i19sZ7Yzya3LW2bet+ShQ8IO267kcsjDskrhVI34w8WXyNHKX/Xs0kwl7yf29PoI+PDzg+vkGP6Dmul6ddiDhtz4gG4M3c5cpJpcLm0UWleFwwchb+F9Nk56cKI05fiGffRm7KXEsTlIMgq3HFFmmPCB0O2OQH6BbbcE2pQEar7yAX2QHy/8rlsBb8Afk+/+8ZdbfRFbp7yU8BeYaG8WyBXKkKmCPyI6WihQaLq8UyobiEuHfZ6SuRY5fT62YcM1JXJhI3jUNVHcCOCR6ID0NZ1vXQA/CuiRa/HTmGyj5yZD4k5kdKxGsRkVNSYB+nnAULmlz5Q+RplywqN4ytVmZDiHNyw4/JKMkQ+U02p6oINxo/m4vKtjq7tg5BHsYpxqHDJLdYNHa2tA1mUKrj5S3IF2UX20KejX++w/xlmDZJsYi8qubIa6cUIL/lrsC4SiU4Z5JvtHwYNRlIHv+EaariEHmRnklv4IHTWSbKO1uHxEZzI3I4dsM4Dk1jbVUNfeW9qyqjorQ/Rr4mLtYuR+b/WTw53qQ7oBo3E/pt5I0ygFykLD9QIUkIGMZX50mm/TTme/pCjBwjj804pnPpC1MoCtIX4l7abuhsjVX4RLy2HVDvB3B3VZet1b6s/ITcayXEMfI18UwskCfm8unWAbknGWlxkbFiE7lXJiI/FqcpvckSOcU/FBgv/ut8OkauTTC4O0ugZmiQNCg4+ra2ZT2gt7uQK721dhy7EojbMO08YLfIFBgq90Z8jZwv8Z9Oa+RRpHwDnl8Cf6tpNK/gHHgQeY3cVoBc3eLy5d45JfjnFdLl6p57kXHxlcvZcVeIKkJkc5ZeqbTFDZRrY7S1TdOgx4dumEYpOmuxHK/bsNxV1fUZmGup9T0TC7EV8hVxzk8HyP/LVPOIteA2+OmTiN5qH0FG5BSRl3PkbVkicny3Ywl+3Z6TIp4Pi5kTPJdfIafZcZa7XOfho/sLepE3RgJx15ZNU1rM7snk49C2FhLmrJsckNdWa2tDi65yVCylVshXxLPTEXKskDMdBuTuNvT88vr2oMUC2aVisbaeI28D8kx8AWrjr/w9m2yezd0vxRfBcuRyomheOq+UlNrTT8nmXkrdVA3Idv3Y4bHvweR4HTr2wBsfJY7015X3VdlIcSW/Rs6vMv10gDy1Dkz58IRDWq8vL39QsGXo9e+/x49BRg4byGu7RG4QOTv2+NYlDcir7HoFkulfIFfSyybHM59XNEmXlZRVg6oseLtqyrbr8QoI1PV1qfUZvrSDL9u1Xmqp1dLjMlsh56tphBXyXecRV5YDzAu9vz+MXVlqlZagyAq5t4ssvwQLS1l+rLS102MdPr3VfN+pJ6cjiV3kDGS8dE4qJWkSEDQa9yYh8aoee3xSAvpxtOjyHptzjZ7k2qHzIKmZSNJaJOTP/8Qm8TXy/1N2rstt20wYVpqDc+jXNm04DFZYfsCSoACBVG3ZbvLDHo9/5Apy//dSLCjwYNIV/c6EUcRYYz1cLnaBJXZ5km/QNj00CyK9DzMrtwDGHG/7mYCqPQ2fq5Gz+BfMZKCEUkKZTxsJwzlv/hR5OdpCj/aaGlWIkZA4YNlXu7oKqIPrbhvnmi5u2bEvP6hB1nE6xMwVDiauGeqPf3qWV5SzJm58EXkXEs8GtZnyhHzmWFTmAaphVjc0cq1tRJ7JFaSTA4nAZakAAUoISvNVUYHci5CDL5g3y3v0mpwXgzRZHYR7ZQ4H46pA3DVB9Y7LbU0b/tqppMY4tNa1e2ZOJ+aeoj3/3I06rtxf67mJz5En2HBmXAMpBn5yjNz7TAP3cxo6rlQNeMtlhHKFlW9Hi3myLFWB+33pCykLmZxYPI8vQq7TjtYaPYDSXolBqlGRODLOitc764aRGxPGzyN3xvj7ZkBuCMuyIWM8q6tHxNS7o5j0Fbr/O5sRnyGf+5Nl6FmO4ssWZr5cxd5jsXP5UGoBAEYVNoe1yPP4ofkeABtvEbEouHsIe5esL0h9AXIA3REvEMWpoW0vbKzupKxRaKswdDZRvAx3PFTGmGDr/X48VAYp4qAnCEkAYT57eDPlLE4ulfHNEv4lf1LoJ8hBzodPxWtmKjVzTq4cQTcckeWZlueQp7MiAAZfKqwbJIuoBPh8umwKK5EHqom8xxKggKgiAXfRxD0TdwoxWPah3XXI64C6NqYKo6VDIqXIktYli9BVnkWthXxQ9nTa+9rl883ERzfD1cy0l2s3A1qYbUzGTyBui/puWgH99QbidsEAkOkuR12BPGczbErCIKM5iC5nl2oNcuz76fPstodBMQcqqHIn4FpRrOIO6+jO2c6xHAJy59owitaq1HuKTZA7ISrjGLlxlI/lbp+2VL5RT4n/HK0u91Z+zqXLeYyt+aq4q6eZ6oMt4/ORbF/8MyuQswBUqQixrlBr8iTzGXI4hxzF0P+6IPIFRA1W7ivTjZsx1ycmXh9DsKI45Wl50vAQkNft4Wiw7NRD994ZItJQKpwwv0kAhvv88LSI7/C1dyw380WDxW8puXvYWJ3R+8fkU4ZhuylL5bkGWxTjTTzOTXpnUjqtnakrYwTYMC6/3Mr/Kobtq1WjBIwlCk2N81p3i2+ELIrz4aRY7YHH0YpX+g8Ho3vimF6qemcQALwqx8jlZbLzUX++dupXvo/KrZbXgQdtt8l7i/EJoWM3vu/znsWU+T3f1d6nSat1klJqXZmInPdkTVa+1szfBuQffhk2jGd7nIhMZ+ExIEfl/Yl4WxkVRTWvdrqIfGfKXogn9nZXW4TIHPKx6oXe4dd6PnjGopXFyGu69000Z8nfFyZ1KHl9dzvv3YwZnbZO7ld8tquQZwk5Z4RFQr5av3zYsC4+npbZ2JJhLF/VTNwTxYA8vGLvzBWejhLyQygm5xz0cKxHyFVE7rFR3hjlO+ZywpzS3T7Zq5mEZE6S7oZzt8/sp58tufQs0Yu2m6t5s+zbuwOquOjFF03o/DmHAv+BvK0DcpGQrzTzjxebpNfvMtFFhgIGKUuuI66SL2fiNSeffcpTH/iRBU7/j63TU+TeWA7oW6s0BCGe4nIQeVRzNYf+7eHxYKvLq7HfmZaTz/1JUo5pEIST41GX3+aX9bLIgzhMSxn6crOxRfOFHvmLrfzd681I71/9VULQiLhAawM19uJen4S4NzwjblSSCchb4xxzrxn5yJmTRS2Cmoqw+0SfWuZlKUC/+/9TJEnjt2jlxCr0Xd09v68P3xeclwVuk5LHBkwgursiPzOnMkdejZGvMPP87av3m6kufoWJPKL2QviGNMufiDtukDYQpyogN46oZWNvykHkKPD2gmWc8h1znecAvByeEs7ihqlMNbsKD3LdbDZbOMbYAznMrnjz+Fkf9HCm6P6kTmMZM10rMUa+XW/lv15s5nrzcQzciyhnMBLHeEDXckUcqaTw793OWLKmDU69Gohj6/rtcQRWjSoic48AbOIyIf8p6fHbubZM7szUXjZhAt22ws313Gvd7YruEeR82PdKFutYZ3lCzlUOptoZtd1iQn7GzD++2Szrz3cQVSbgiJY0C/fx4FrerM6qJDJtW+8qIlcZ4w5HSsS98igG5tZYBBbGrk2Si+BlD31IU5aJX+df1i2U5emwHBj+c4MJxwgh3xorBXkekBNalFK13IwFVb6IfOqq3v25eVYfXn0GEAm4UCT0PgblKhxRNfyUW+tUL2taLncmMjypGA5WMXBSDNsPyIVzVMY5eEU+llDmGWxTiv+z2H2fQx9yJLViXINIMZ3Lj/PA8Pa66SdDII2Xsp+QWjkI5hYRFTZSyq3VHgH08k9iPxJ8fvVh81+6+L0HLnycT2TkiOj9nolPHDk5E5u8ErmWGkeBq2lKTT7t09Lvru1Nozpn7pXPIm7gQ5/bX94/t3T8XfVp4XayK/Ucetb5c2muZsC/PVTzwv3Tos5K4mn05G/utXWqICGKbAuLDoUdjswA4PeLzTm9+SSiCh3dr9csVApdG3faUb3IMXJjnCXTKmuJiIsvkpAP+sScjFUIUPBHiSziBrGdFKcw9IVGb/ZE+Wy6Ah22jB5v58nmpZzcIqsob5dWQSUAWu9JeyoCJMk+bZv+83DLSCCATMpPbzYr9P63z4FRWUCnLh4nYhuvdpUaRCYRp8ooIusVikFlkQ5BRVM1ygOUvvSqhBi2PGkxbR85Ypx277x/xOHbn4MeqerjPKu9v/YztzT+SMY20/JsSyywzchr9ptaSm6cBSPzluEOBGDaOgB/+9v7zTp9+EUUiTh0maeN7Yt3lVWDbEBunHFEtlLKKqt1XwyQ/Hhv9bYytBcARVliDF+2s+8k1PEq8Or19e6xGjGCLaSyqWWVwcjqhxnw22uaD25jyP58wD8IIHCWoLTGjnnZ79XCtJFpRwEBZ/erdfFHIu4bxcirHTvyqlET5HXlInJTeWoCcoH0BLnw/RqHadQeAJBTUwEClpAVzeHH1d33+/u7q+vLKnnxnkAu02FJ+kt1NfcpD3V2pmQiWw4Jl+8ijrWk9EKj92K7FV2UVEBn25lg2vw62/5xsXmZXn+CKCRCrZvdLhBvGzWR2wXkriGqjVfhnBZlI57Ip6NyjpRm18LMYWEEhK6RmibbWPIiWWSKAkFITlyf9y74Y8GnHPFsmcSM7rNXVcZrIUspBVq17SqzpUA96vgGIDlC/PR682K9/9/n6MgVoaZ6x0NnQ2osctHKiahu/N7GfcwtPkXuT6NoQYYUeQCvmXm+YrhK7+WcPLFxcWEVZ5eLmI73X2dxyg+bn+G9wqfkwyuBMWuVRZx41V16VwylKGU4zfqXtyvYjdsGoqfe2hyaEgIpcjoipTW1o42dxEhySGHk4P//pXJIL7kmVUvJ1n6AAS12YRhP46c3b0ar3/6oRHy3pCskh2jsKdrDxWNC6fbHZRl9oBwJA5KVr2BABjh+a7ZoHUuLcKQ2KS8iHu1wlEiFXO4rbIn5oSX8we/MwF8W8e7CnPZ9khcljjOZXNxRScoXgvy+X8TbDIAcYVwYD2nhghXlpzFQzq58IkIX2R4aym3y5yAlU46oxMD0gdimvDubZ3v4/vVxRNBGaMkWo/p4h59XjOEtNL98HWJrOaYMndIn+EBLLvFBJrbzx+rufj9KrOt8mD0Eyg8zVpiD2CwsLKOno4V06TRUU55PAtkZjUUWPK2F1C3l7UsezZubmAj8c4uzE2lRRXSXlQ53K8n73fCcTNXtqPJOvJSdKZnWJhK1oKQ5ku7Kycrd/TXgWPfmw8RCfvJYYZzmcZk5RiQ6eiCUDFMpOVmSDC5z743xmJ5JoZTe1nIVKvz+bEOC+RisDnC5ohji/ntrDB99E6ir7cBQvfCW69SQ32fJJuCX3fOTxRHtteBYd5rGeTphBc8LifH2z5EIFxiO0RiCkwVsXhHlk5o769EYVGfOu4rytgkRHz6XtIS/IXtxhlNIV0rz0Ix9OKLVKzRu3SzhXrY2SMWBa6E705ysNqK9QtJndtUVZnYrnjOtmch4GIbkxUkWsM4YdGc1R++NBCMS57U1b1tMzWOjv59P6gihU0r+1TkBSvMCVmsMqardrem95h+5lWgJ5CLRlRyti/j1ePcea1gucutP1o5IZBAi1RR7/AI+D8acyxx8nFvE551Hzrccy+3K4PKGrFIqltxwvzKz/gEtWVtZeD1GbdErEbyhWftzBSURf3edprSxLhbYp0XPyVsbKJ+IyBgwidfS/USYQRIOZzU3Rz40xGUeOd/Qcm3jeLRe7bKO602OrYh//dhGvduaIqHfZFyX/ZnqW7P7+JdzRHsl2li30ZWRddz6mYjQAZbQ9+IyOgCASW+5bGgMPHGuVEV5bVi6EH03hvsLu5HOf2zHphzR/vSVkZ3IfrjuknJt0l8dI9rr0ca6l0XOS/2WU/LJM+UAPufjyAc5XDEwRDXPVR9wlhatxH9RHsctfd8D/mjV4+FmWlnJ+HYPv2BHtIxbXrmC9/oa3WfnyRHta4AzgCLp8zKPi7WzteMxUW5zlIU2HFD2ie7sH8u/ADDn1XNRW2FRTDnPlD63yz9fW035Yffcid8SHugmfm/vcgQbc51+4RXd/f4M4KnI7eKn0SbKiQFgs4LjEq+bCWCOAE2ZD5Q5z0yrlnIVKbeHT00m27xmY7gF0XyEb7HSOvvDvWBB1JQXsF4THOsiY/Z+nCLlfqKAAQDhTLmbTTgCmUAI0uClVWeQEyI/VDzBtQ2/63uQcjmMh7rBrDXl0MmNKm1vn+oGeP50zx3KUhvOvRHtlRlApHw+8eRt4S3RAAeQ2JYMby+6UIcUfmRV5pKUyI8VT4CW8kH1JOUU19cr73K5Kv7lDth37GFMUm7/FRR5UXrz/of2apMXsF4bLOne+/FkrfXeektEBgCczHN94wOtkDm2qRHKSiMjSFSci+7SDPT89EEH4IGrfAybSffV2L70pOYpTHGwzZo0rkvTybwf3fd8un8a8Joi3mYA3h+mWOTWU6I8kUqxhJ03pSVK6SLVETrbFiU1wwVrq1TneJMrp6XhSLOWI0icJr4ZbBrveDmljlM+jqUVZB43oPuYtijVX9pr8ZOhevfz3f31GcDBJsptoTwz64jVY8gcl5pnDJheIw5miOacqO+1hmY5kB3LICWvnn74EIevj2d1yQtYn8Q+L9gOg1QbJrZQavUUdNzdvzX+fM9XTx8pNwbADdznHJlaAECCYloImedCurXnvghARyjNDnxFBuLlU94c4kN7p4DbGOSWpshWIrttr/l6/cvgrPyKiPbqWNcuk58tEXoEMEjGHL2TxnvOwOxASNIkZSEpkeqBaORdFc7dKuUkT0g0hd3HtEWPtw/52eOP3Gy2uqBktoS7u/9un01JWytdHdG+oaTPx6gr1gEcjZSQZBqMMfOEZHKZp5AxYyicg07gDeRVys3k3EJkA+WHkQAWZz89PnwLX49wh1Wql+FQJ8r3Q+yuctG/rYi3GUCkHACMy1txJh4ZsrOTCeY55eUYpMuc65XKU0enjXNkrT2dZqIFwLhOafXilU6JZAD/d8q5Mqru/u3V5d17ppwAUiXbzHtMu6SEQrGTGa7wX+rctRQKGHSAFcIyZgRAkUcUFdXlnk+G5oBvH0pIVetILStK745oXzUDIIpaPuQCjwW/jP4s33BEqsrcQaFc6QSsi7Un1fdaaqUFDkNQciIvAhyX/2VlwpOv15e/oUfT7x/wO2tcY1YK5f9SdzY7rtswFF4UaIHb1S2GIHhIEfppgbnRvP/z1bYsyz8ZzDSbpN8ijpVFgAOCIY8pZZ0S1tbdP41h6+btLKi8WYn5I4atz68xHtoh8X3IWyPQocsrrqqmqmIGTXnivQIEYl4fN/cmvZ5FRO80vwOLorKd/2wStJe7W7Svwm9/+sSQ/L3/oXPums/L/hHvhrkkW3CzneTQxnwtqmbTs1Z3cWdmG4+PkXY1Ip/rRLZviZ4S8yIwDdFZT3prG8B6OmO0q/rODg8icpvfxhxl4KNYcZez5m6kPa6SLgzRDY5YcSNmYTYWufgeRPhGRXiFC7OytS8OPh4DDbnZ8PPS3T8/pUuXvIf5/LaGFI6FSi8lXQYuNlE2VxFBD5AqJiQDyKLgY0ESuclyX1584eOCF4yNZ8OF2wicYJNbCdaS+Kvxx4/R5Hz0H9FUFkW77oN6CP8CMxNrmlPQM6SqIeaAWkvlNzp6e4Hov42nwNHXiBdUU1njnBHIBFt4w1R/vEoSv9q6XfK4DSN67/FruxuEWxi3TtaAyUgnp+xCOTLvWiaVfrzYF6hdD/asWD7ghjEH4zduCzViC++J71q0z/EAfo7eJ8iOlGOWO3hN0rBGjbpCpgeKF3dmBo/z178N8SXmqcB5R0VlJuUJkpAIpAs/v9vdP80DkIV8klxCifGSwTsxCmATklSH0qYnpBDeGHQ0RbT3TWPpCgc6jXlKjpU7apzIhY0nJAlJhM48obt/wNa9RnlL6jVJiHKXkmMOVLBT+gqAj7qVb2P7CfXoJf5qRy5ju6sJqmRrWlFiIjOAQTWRTkhV1WbRvjx//T7Kk0GaFzzmIndJnv75yPo5Agvisoq93yJn3/XJPeyHhRoBWzJ3MgtVANOGNYv2pRk7diV4ksF4Apc/09xrAUmo+9RyZd0yxHYZ+78HH5ZJyfq6zmC+IBizslT5FdwMNzddeWAA65kewJB8kHwbZLlSbwpShRvVKPoJ4LVJHFRuCfoL4Nz3HIs2rL2RxJ6CW6VqhhK08Vh3/1Rb9yL5MFdqlQshqMJUNZiZFyfoBmnH/LKfiiheXMFLoY5hcXnRDpHO+Me7TYiRwbXxmEX7dFtXLnS56z3R61qML/2/qnqFnpHCm3ZowubLtMNlqnlzzNiknn4gyABFhK1fqjPf3iP7ch6AS3VxGeyGAEKRE8V7AyRipo2a5RDtUfrA6/IKdFPxbhLX+cpOfR2RdAe5m0EnjIJZ+8z0Fbr7x0e7RCTEUmWHr3fpEukVaqskaQhtAtMNNPlMVkk3t0UAvgS6Yn/GgtZiOmMQb52WV9OVCuhy89gA1gvZutKpIZx6oFSluuwIqj287YZDEidrJm6L2677vIZ7G0/AjOaZCG9rSRsFtv5uoGDXdv0dVB+0aF/M1pUdMUnay3w71Iyl7lROWfRAranVLE3k/G4E1aJIl3NnFAQifeOYdh7toiwl0YYI9ADC+4MDWK9p6x6UTSkGWYi5umxUH5oDVfQCQrNqPYpNxEQ6cx70CTSRfuX90dqqCnd85ieY/p+T+NUDuFJSCDWJxOkiGwFN8/ZqVc/YR5rliy6SQzKjW6/XGdsIFoEmpFrIGEFuqkh6wVp7D6mPdfeva+t+xu09x+HiejiG31qd+xb5Zpk5ZzO3GcL6IYVel8BLO+hzKfJzy+imjCV/X2jZBWb/tnd2u43bQBS+K9CbAsVWF+J6hDkz+iE90gYI+v7PVg7JxH9bYOtubCCrE4ORFCMXX5gjz9FIfEBE+4xY9/tC5OEtBTO7noTq07BKPVWXJWbUzlszKA/8jAo7q8QJfUZ+7FvppBTqEyX6E/AL9D75HxDRPi/WvZXPcBUTrbs0XDHvpB3J5DNppJTHLDkcbBwQHKlWvMNfX4uJD4H7BhfhK9SJd/ZvJs7HB0S0z411b5m7YqTG/JKIZkQ+i40LQh4GSg685utTClnuIMW/12NXlQ7nMYr1XvDcyOpbSkT7WfWHWzrfIq/iqLUuPccyVDjChWH0Vjwz3z0cLA/DwEMIXsVrDMG6QBV5tPfSyccB15dSz3o2fvvj0wJvsW6v18ztfYM58yc7++cfyhmUivsyD0XTRHmC+/xOkneTlt9JIxdTgY98Qn7uJt3pz2jBt/QBEe3zY10nfCnYe8fisEo/cH9yXTiqso8IgJ24uIXUhyKPYz4AbyhIolqXG3BzIdzYCA5nbTGD25AvQfqQiPb5se7gZnIuOzsCYZEuw760X7+aiqjtXkeeQkjzPPvyI2uGLhNArKrSVj4mO7UGNPVd33aPvkv+zqdEtM/PAJqd22mP5wnoGrEWa0vozT2a/Uy7MG+zaynQh8GQWBXwKV6QmyO/lajbip9vQ+joedX98zOA608yNm7UkHsCgN7v48r+HVZvnx6Px7hl2lnftm3KzGcANmrXIX8VUf894t1hqIttMCOER1f3z491r4SLvZiEg3u5hdrG5YohQDLwoy/nujhz//66xBhXAHTshvxVFLpb3v77KLCG1anfEdF+vgxAz7u3ItG0QrvQcIf8yshTJp5mRz5X7N++5dHfLMDanen6Gl4IpZk0hBiJ+Lq6/wUtfSC75B8F4Miqlbhi6AMFVY3FUBYfMnrfcPKEFeAb5KfzZ/1n6QMImL2L9tfU7+cZAK47MODiiQ4hY9d8KFiQStzn9pyBvzjwwnwEKnJ0TTc2ziEcQgRW3PcYw88X69LVvc+9wRXXxH7iRK+9BdO0VOSLu7iDn7dxHOetIu+7pp7Pefd+tclCkPz6XBHt/a1d38sBwMiygXiVunQaB2rIl4x8WZYX5+3aZuDCy/U6UwkZeVa6rwHrc8a6fGnmmo8QsnoYGYsNKMjXpTmLW/m8jE0FuXRnujp7DgfKxMUj2l23se4w1PqfDaB6gCSKUhCVinwpwOcTc5P30+fgA+eKp13U6PzDPQ6rhRLR7mqLMVwLzVqs7ZLJFANrXBrzhrw5y0xUkYfOFWK5omcFOunw9cAHu6jud3fxWPcieFHUZ/zh3WiUNosa56rlDX0BPm8QIHU6cJvnxp3WE2dACHnD75HddZ0B2E0nHfvwDn2jqHxC3lzdZ/w2Vi+HA/csRix0naMuS3V35dr9rttY9ypfBHpl6U8SXt+8vFZBVf509QlZY1elTFHKFkvIekBE+wlau4qgClHvS6+CTLouWZX5G/xtbMiTQ+46UVVLM3HHZhwC7mjA+hUzAPhgJGMkR94UdXqf3a30bMzBjpw7MtOsibJWy9Ivv0x1f/9DGIgJkKMZifC0SrlXHcQUdeHl5XVZSpL4kuHX+f6ancUAbL0hAaYEyBw3sUTYTfwHYt1BtbZEuwD2rTJIWnh9fQtu/35dvPic53FeptEArFb8hRhYVmaWmX7kHtndXC5jXevVRPomkdSiwyUjn6csx75sjpwmmBmEKK3s+s8R7Z4BNE83ed8zix7ZekyejWV8Qz4tyRhgACOQRiL2P8Od1f2eAeA82R1jnF4y8uLlW0U+jel4nMaKPGEUorjMy53V/R7rcimCTtvLJLJcIfdLcwkNeQJo2r7dF9Huse51F0BiM94E8KrzdaleHvMUP+IIOGyk8tMve0R7d2vXuaxH3IyAFZBX/3yezXyNcU0AaAOQ0ScC5v/RgLVnABfPg5ZIJCOyosTxdc7IRaKzxspAZDIj4CdV93usa9z3vJJqYZ7mGOdFRGYGYOWQUGTgjoh21+0au3TsXUQkSdUmADJFEYmCLB8mIBHhzz2i/bmtXUKmqgJEADzKxPDtNhD26v7nt3ZRUtXJ+j6tqBojihjAz27A2mPdow6kLsnMsRIAjvUKqTA+IqLdY12eWFU5UqmKbOX2+H8zwcc0YO2WnpK62Jx5EVkpkuIHmfieAYhmuavEVv4Pw2Da93t1/4HduqrsuE2lpQCi/QdHtHusSy3gGsiJW/+Qe2T3WNdO61s+JqLdY10wO/LdxB96x67m14Pvkd1jXXpwRLvHuj8a0e7a9Q+ZynHMbX3GXQAAAABJRU5ErkJggg==;" vertex="1" parent="lq-5jt9Ya-7NSeZJYcWY-114">
          <mxGeometry width="96.18" height="111" as="geometry" />
        </mxCell>
        <UserObject label="&lt;font style=&quot;font-size: 18px;&quot;&gt;Nodejs Gateway&lt;br&gt;&lt;br&gt;&lt;/font&gt;" placeholders="1" name="Variable" id="lq-5jt9Ya-7NSeZJYcWY-109">
          <mxCell style="text;html=1;strokeColor=none;fillColor=none;align=center;verticalAlign=middle;whiteSpace=wrap;overflow=hidden;" vertex="1" parent="lq-5jt9Ya-7NSeZJYcWY-114">
            <mxGeometry x="8.089999999999918" y="105.5" width="80" height="48" as="geometry" />
          </mxCell>
        </UserObject>
        <mxCell id="lq-5jt9Ya-7NSeZJYcWY-118" value="" style="group" vertex="1" connectable="0" parent="lq-5jt9Ya-7NSeZJYcWY-140">
          <mxGeometry width="97.61999999999989" height="132.95000000000005" as="geometry" />
        </mxCell>
        <mxCell id="lq-5jt9Ya-7NSeZJYcWY-113" value="" style="image;sketch=0;aspect=fixed;html=1;points=[];align=center;fontSize=12;image=img/lib/mscae/Cache_Redis_Product.svg;" vertex="1" parent="lq-5jt9Ya-7NSeZJYcWY-118">
          <mxGeometry width="97.62" height="82" as="geometry" />
        </mxCell>
        <UserObject label="&lt;font style=&quot;font-size: 18px;&quot;&gt;Redis&lt;br&gt;&lt;/font&gt;" placeholders="1" name="Variable" id="lq-5jt9Ya-7NSeZJYcWY-116">
          <mxCell style="text;html=1;strokeColor=none;fillColor=none;align=center;verticalAlign=middle;whiteSpace=wrap;overflow=hidden;" vertex="1" parent="lq-5jt9Ya-7NSeZJYcWY-118">
            <mxGeometry x="8.809999999999945" y="84.95000000000005" width="80" height="48" as="geometry" />
          </mxCell>
        </UserObject>
        <mxCell id="lq-5jt9Ya-7NSeZJYcWY-149" value="" style="edgeStyle=elbowEdgeStyle;elbow=vertical;endArrow=classic;html=1;curved=0;rounded=0;endSize=8;startSize=8;entryX=0.471;entryY=1.093;entryDx=0;entryDy=0;entryPerimeter=0;" edge="1" parent="WIyWlLk6GJQsqaUBKTNV-1" source="lq-5jt9Ya-7NSeZJYcWY-146" target="lq-5jt9Ya-7NSeZJYcWY-134">
          <mxGeometry width="50" height="50" relative="1" as="geometry">
            <mxPoint x="1830" y="310" as="sourcePoint" />
            <mxPoint x="1150" y="120" as="targetPoint" />
          </mxGeometry>
        </mxCell>
        <mxCell id="lq-5jt9Ya-7NSeZJYcWY-150" value="&lt;font style=&quot;font-size: 23px;&quot;&gt;展示&lt;/font&gt;" style="edgeLabel;html=1;align=center;verticalAlign=middle;resizable=0;points=[];" vertex="1" connectable="0" parent="lq-5jt9Ya-7NSeZJYcWY-149">
          <mxGeometry x="0.1444" y="-3" relative="1" as="geometry">
            <mxPoint x="-1" as="offset" />
          </mxGeometry>
        </mxCell>
      </root>
    </mxGraphModel>
  </diagram>
</mxfile>
